<svg width="36" height="24" viewBox="0 0 36 24" fill="none" xmlns="http://www.w3.org/2000/svg">
<path d="M14.3994 17.6895L24.3994 23.463V11.916L14.3994 17.6895ZM23.3994 18.6895H28.7993V16.6895H23.3994V18.6895Z" fill="#C9C9C9"/>
<path d="M35.9995 9.9502L25.9995 4.17669V15.7237L35.9995 9.9502ZM21.5996 10.9502L26.9995 10.9502V8.9502L21.5996 8.9502V10.9502Z" fill="#C9C9C9"/>
<path d="M9.60294 0.175179L17.2529 5.42673C17.4775 5.56445 17.6663 5.77635 17.7983 6.03863C17.9302 6.30092 18 6.6032 17.9999 6.91153V8.50358C17.9999 9.26643 17.4959 9.88556 16.8749 9.88556H16.1999V18.7303H17.0999C17.3386 18.7303 17.5675 18.8468 17.7363 19.0541C17.9051 19.2614 17.9999 19.5426 17.9999 19.8359C17.9999 20.1291 17.9051 20.4103 17.7363 20.6176C17.5675 20.825 17.3386 20.9414 17.0999 20.9414H0.899995C0.661301 20.9414 0.432384 20.825 0.263602 20.6176C0.0948205 20.4103 0 20.1291 0 19.8359C0 19.5426 0.0948205 19.2614 0.263602 19.0541C0.432384 18.8468 0.661301 18.7303 0.899995 18.7303H1.79999V9.88556H1.12499C0.503997 9.88556 0 9.26643 0 8.50358V6.91153C0 6.33441 0.242999 5.80373 0.635396 5.50301L8.39605 0.175179C8.58355 0.0599772 8.79031 0 8.99995 0C9.20959 0 9.41545 0.0599772 9.60294 0.175179ZM14.3999 9.88556H3.59998V18.7303H6.29996V12.0967H8.09995V18.7303H9.89994V12.0967H11.6999V18.7303H14.3999V9.88556ZM8.99995 2.2769L1.79999 7.25205V7.67439H16.1999V7.25205L8.99995 2.2769ZM8.99995 4.35762C9.23864 4.35762 9.46756 4.4741 9.63634 4.68144C9.80512 4.88878 9.89994 5.16999 9.89994 5.46321C9.89994 5.75643 9.80512 6.03764 9.63634 6.24498C9.46756 6.45232 9.23864 6.5688 8.99995 6.5688C8.76125 6.5688 8.53234 6.45232 8.36355 6.24498C8.19477 6.03764 8.09995 5.75643 8.09995 5.46321C8.09995 5.16999 8.19477 4.88878 8.36355 4.68144C8.53234 4.4741 8.76125 4.35762 8.99995 4.35762Z" fill="#C9C9C9"/>
</svg>
