<svg width="38" height="15" viewBox="0 0 38 15" fill="none" xmlns="http://www.w3.org/2000/svg">
<path d="M1.16105 10.8142C0.657162 10.5881 0.431955 9.99631 0.658039 9.49242L4.34229 1.28107C4.56837 0.777181 5.16013 0.551975 5.66402 0.778059C6.16791 1.00414 6.39312 1.5959 6.16703 2.09979L2.89215 9.39877L10.1911 12.6737C10.695 12.8997 10.9202 13.4915 10.6941 13.9954C10.4681 14.4993 9.87629 14.7245 9.3724 14.4984L1.16105 10.8142ZM35.5943 14.6791C30.918 9.60712 26.8492 7.08839 21.8909 6.5513C16.8549 6.00581 10.7422 7.48124 1.9261 10.8364L1.21473 8.96718C10.0545 5.60303 16.5582 3.96197 22.1062 4.56293C27.7319 5.1723 32.2147 8.06296 37.0647 13.3234L35.5943 14.6791Z" fill="#21EC5A"/>
</svg>
