<svg width="35" height="24" viewBox="0 0 35 24" fill="none" xmlns="http://www.w3.org/2000/svg">
<path d="M33.7765 9.27298C34.1914 8.90836 34.232 8.2765 33.8674 7.86169L27.9255 1.10197C27.5609 0.687155 26.929 0.64647 26.5142 1.0111C26.0994 1.37572 26.0587 2.00758 26.4234 2.42239L31.705 8.43103L25.6964 13.7127C25.2816 14.0773 25.2409 14.7092 25.6055 15.124C25.9702 15.5388 26.602 15.5795 27.0168 15.2149L33.7765 9.27298ZM2.01432 23.1202C4.98693 16.8948 8.13204 13.2882 12.7115 11.3128C17.3626 9.30651 23.6386 8.91372 33.0521 9.51984L33.1806 7.52397C23.7419 6.91623 17.0435 7.26604 11.9193 9.47638C6.72358 11.7176 3.29259 15.8017 0.20951 22.2585L2.01432 23.1202Z" fill="#EC2146"/>
</svg>
