<svg width="32" height="32" viewBox="0 0 32 32" fill="none" xmlns="http://www.w3.org/2000/svg">
<g id="fluent:call-28-regular">
<path id="Vector" d="M9.05184 3.02271L10.949 2.45128C11.8126 2.19073 12.7415 2.25337 13.5623 2.6275C14.3831 3.00163 15.0397 3.66167 15.4096 4.48442L16.5901 7.11071C16.9082 7.81821 16.9969 8.60755 16.8435 9.36798C16.6902 10.1284 16.3027 10.8217 15.7353 11.3507L13.6724 13.2741C13.6469 13.2979 13.626 13.3262 13.6107 13.3576C13.3947 13.7987 13.7227 14.977 14.7501 16.7576C15.909 18.7644 16.8038 19.5576 17.2187 19.4353L19.9261 18.6067C20.6676 18.3803 21.4613 18.3916 22.1961 18.6389C22.9308 18.8863 23.5697 19.3574 24.0233 19.9861L25.701 22.3096C26.2277 23.0391 26.4717 23.935 26.3876 24.8309C26.3035 25.7268 25.8971 26.5616 25.2438 27.1804L23.8004 28.5461C23.2985 29.0216 22.689 29.3685 22.0239 29.5574C21.3588 29.7463 20.6579 29.7714 19.981 29.6307C15.9616 28.7941 12.3604 25.5576 9.1467 19.9918C5.93184 14.4227 4.92956 9.67985 6.22099 5.77928C6.43716 5.12625 6.80735 4.53486 7.30028 4.05507C7.7932 3.57528 8.39322 3.22118 9.05184 3.02271ZM9.54784 4.66385C9.15265 4.78288 8.79192 4.99529 8.49613 5.28312C8.20034 5.57096 7.97818 5.92577 7.84841 6.31756C6.73527 9.67871 7.63699 13.9484 10.6313 19.1347C13.6233 24.3176 16.8667 27.2319 20.3296 27.9519C20.7359 28.0363 21.1566 28.0212 21.5559 27.9078C21.9551 27.7943 22.3209 27.586 22.6221 27.3004L24.0644 25.9359C24.4163 25.6027 24.6353 25.1532 24.6807 24.6708C24.7261 24.1884 24.5948 23.7059 24.3113 23.313L22.6336 20.9884C22.3894 20.6499 22.0454 20.3963 21.6499 20.2631C21.2543 20.1299 20.827 20.1238 20.4278 20.2456L17.7136 21.0764C16.2118 21.5233 14.7993 20.2719 13.2656 17.6136C11.9661 15.3644 11.5158 13.7393 12.0713 12.6044C12.1787 12.385 12.325 12.1873 12.5033 12.0204L14.5661 10.097C14.8718 9.81217 15.0806 9.43879 15.1632 9.02925C15.2458 8.61972 15.198 8.19459 15.0267 7.81356L13.8461 5.18842C13.647 4.74529 13.2934 4.38979 12.8513 4.18831C12.4092 3.98684 11.9089 3.95316 11.4438 4.09356L9.5467 4.66499L9.54784 4.66385Z" fill="#444444"/>
</g>
</svg>
