<svg width="48" height="48" viewBox="0 0 48 48" fill="none" xmlns="http://www.w3.org/2000/svg">
<g id="carbon:send">
<path id="Vector" d="M41.1741 22.6648L8.17409 6.16477C7.91545 6.03542 7.62493 5.98359 7.33751 6.01552C7.05009 6.04746 6.77804 6.16179 6.55409 6.34477C6.34023 6.524 6.1806 6.75935 6.09316 7.02433C6.00571 7.28932 5.99392 7.57344 6.05909 7.84477L10.4991 23.9998L5.99909 40.1098C5.93793 40.3363 5.93079 40.5741 5.97825 40.804C6.02571 41.0338 6.12643 41.2493 6.27233 41.4331C6.41823 41.617 6.60523 41.764 6.81829 41.8624C7.03136 41.9608 7.26454 42.0079 7.49909 41.9998C7.73391 41.9984 7.96511 41.9418 8.17409 41.8348L41.1741 25.3348C41.4198 25.2089 41.626 25.0176 41.77 24.7821C41.914 24.5466 41.9902 24.2758 41.9902 23.9998C41.9902 23.7237 41.914 23.453 41.77 23.2174C41.626 22.9819 41.4198 22.7906 41.1741 22.6648ZM9.82409 37.6648L13.1391 25.4998H26.9991V22.4998H13.1391L9.82409 10.3348L37.1391 23.9998L9.82409 37.6648Z" fill="#2596BE"/>
</g>
</svg>
