<svg width="24" height="25" viewBox="0 0 24 25" fill="none" xmlns="http://www.w3.org/2000/svg">
<path d="M20.2059 5.75006C20.0744 5.52226 19.8853 5.33305 19.6575 5.20141C19.4298 5.06977 19.1715 5.00033 18.9084 5.00006L20.2059 5.75006ZM20.2059 5.75006L21.9759 8.75006L20.2059 5.75006ZM19.7509 13.0701V13.2902L19.9133 13.4389L21.3308 14.7364L21.3307 14.7365L21.3388 14.7435C21.5132 14.8965 21.6291 15.1053 21.6665 15.3342C21.7039 15.5632 21.6605 15.798 21.5438 15.9985L21.5415 16.0025L19.8329 19.0001C19.8327 19.0004 19.8325 19.0008 19.8322 19.0012C19.7446 19.1526 19.6188 19.2783 19.4673 19.3658C19.3155 19.4536 19.1433 19.4999 18.9679 19.5L18.9646 19.5001C18.8566 19.5009 18.7491 19.4842 18.6465 19.4507C18.6459 19.4505 18.6452 19.4503 18.6446 19.4501L16.8339 18.8365L16.6023 18.758L16.3982 18.8926C16.0994 19.0896 15.7879 19.2666 15.4657 19.4225L15.2425 19.5304L15.1934 19.7734L14.8109 21.6634L14.8105 21.6652C14.7648 21.8954 14.6395 22.1021 14.4567 22.2493C14.2739 22.3965 14.0452 22.4746 13.8105 22.4702L13.8105 22.4701H13.8009H10.2609V22.47L10.2513 22.4702C10.0167 22.4746 9.78793 22.3965 9.60512 22.2493C9.4223 22.1021 9.29706 21.8954 9.25135 21.6652L9.25099 21.6634L8.86849 19.7734L8.81949 19.5313L8.59744 19.4231C8.27777 19.2673 7.96882 19.0904 7.67265 18.8936L7.46841 18.7579L7.23605 18.8363L5.41725 19.4501C5.41671 19.4503 5.41616 19.4504 5.41561 19.4506C5.31287 19.4842 5.20535 19.5009 5.09725 19.5001L5.09393 19.5001C4.91857 19.4999 4.74634 19.4536 4.59452 19.3658C4.44269 19.2781 4.31662 19.1519 4.22894 19.0001L4.22895 19.0001L4.22656 18.996L2.45656 15.996L2.45658 15.996L2.45413 15.9919C2.33208 15.7895 2.2857 15.5503 2.32323 15.3169C2.36076 15.0835 2.47977 14.8709 2.65913 14.7169L2.65918 14.717L2.6656 14.7113L4.0831 13.4513L4.25092 13.3021V13.0776V11.9301V11.7099L4.08852 11.5612L2.67102 10.2637L2.6711 10.2637L2.66304 10.2566C2.48861 10.1037 2.37277 9.89483 2.33537 9.66588C2.29804 9.43736 2.34117 9.20298 2.45738 9.00274L4.22656 6.00414L4.22658 6.00415L4.22893 6.00006C4.31662 5.84819 4.44269 5.72205 4.59452 5.63429C4.74634 5.54653 4.91857 5.50024 5.09393 5.50006L5.11067 5.50004L5.12736 5.49891C5.22807 5.49206 5.3292 5.5005 5.42731 5.5239L7.1885 6.1603L7.42431 6.24551L7.63363 6.10751C7.93244 5.91051 8.24395 5.73351 8.56614 5.57767L8.78931 5.46972L8.83849 5.22674L9.22099 3.33674L9.22134 3.33497C9.26706 3.10477 9.3923 2.89799 9.57511 2.75082L9.26778 2.36904L9.57512 2.75082C9.75793 2.60365 9.98669 2.52547 10.2213 2.52997L10.2213 2.53006H10.2309H13.7409V2.53015L13.7505 2.52997C13.9852 2.52547 14.2139 2.60365 14.3967 2.75082L14.7099 2.36176L14.3967 2.75082C14.5795 2.89799 14.7048 3.10477 14.7505 3.33497L14.7509 3.33674L15.1334 5.22674L15.1824 5.46884L15.4044 5.57704C15.7241 5.73281 16.033 5.90969 16.3292 6.1065L16.5334 6.24222L16.7658 6.16382L18.5846 5.55005C18.5851 5.54986 18.5857 5.54968 18.5863 5.5495C18.689 5.51592 18.7965 5.49922 18.9046 5.50006L18.9079 5.50006C19.0833 5.50024 19.2555 5.54653 19.4073 5.63429C19.5592 5.72205 19.6852 5.84819 19.7729 6.00006L19.7729 6.00007L19.7753 6.00414L21.5453 9.00414L21.5452 9.00418L21.5503 9.01246C21.6741 9.21326 21.7229 9.45135 21.6882 9.68466C21.6534 9.91774 21.5375 10.1311 21.3609 10.287C21.3607 10.2871 21.3605 10.2873 21.3603 10.2875L19.9217 11.5463L19.7509 11.6957V11.9226V13.0701ZM18.7482 18.9737L19.1328 19.1038L19.3391 18.7541L21.1091 15.7541L21.3159 15.4036L21.0146 15.1299L19.1745 13.459C19.2649 12.8069 19.2651 12.1454 19.1751 11.4933L21.0092 9.87498L21.3189 9.60171L21.1091 9.24599L19.3391 6.24599L19.1352 5.9004L18.7536 6.02463L16.4303 6.78105C15.9122 6.38128 15.3441 6.05085 14.7404 5.79814L14.2612 3.402L14.1808 3.00006H13.7709H10.2309H9.82012L9.74042 3.40305L9.26141 5.82511C8.65337 6.07322 8.08243 6.40397 7.56473 6.80802L5.25361 6.02641L4.86906 5.89637L4.66279 6.24599L2.89279 9.24599L2.68594 9.59657L2.98729 9.87022L4.82737 11.5412C4.73698 12.1933 4.73676 12.8547 4.82672 13.5068L2.99261 15.1251L2.68291 15.3984L2.89279 15.7541L4.66279 18.7541L4.86668 19.0997L5.24821 18.9755L7.57151 18.2191C8.08964 18.6188 8.65774 18.9493 9.2614 19.202L9.74063 21.5981L9.82102 22.0001H10.2309H13.7709H14.1817L14.2614 21.5971L14.7404 19.175C15.3485 18.9269 15.9194 18.5962 16.4371 18.1921L18.7482 18.9737Z" fill="white" stroke="white"/>
<path d="M12.0051 16.5L12.0051 16.5H12C11.2089 16.5 10.4355 16.2654 9.77772 15.8259C9.11992 15.3864 8.60723 14.7616 8.30448 14.0307C8.00173 13.2998 7.92252 12.4956 8.07686 11.7196C8.2312 10.9437 8.61216 10.231 9.17157 9.67157C9.73098 9.11216 10.4437 8.7312 11.2196 8.57686C11.9956 8.42252 12.7998 8.50173 13.5307 8.80448C14.2616 9.10723 14.8864 9.61992 15.3259 10.2777C15.7654 10.9355 16 11.7089 16 12.5H16L16 12.5051C16.0054 13.0312 15.9057 13.5531 15.7068 14.0402C15.5079 14.5273 15.2139 14.9698 14.8418 15.3418C14.4698 15.7139 14.0273 16.0079 13.5402 16.2068C13.0531 16.4057 12.5312 16.5054 12.0051 16.5ZM12 8.99989C11.5398 8.99073 11.0825 9.07421 10.6552 9.24541C10.2242 9.41805 9.83282 9.67631 9.50456 10.0046C9.17631 10.3328 8.91805 10.7242 8.74541 11.1552C8.57421 11.5825 8.49073 12.0398 8.49989 12.5C8.49073 12.9602 8.57421 13.4175 8.74541 13.8448C8.91805 14.2758 9.17631 14.6672 9.50456 14.9954C9.83282 15.3237 10.2242 15.582 10.6552 15.7546C11.0825 15.9258 11.5398 16.0093 12 16.0001C12.4602 16.0093 12.9175 15.9258 13.3448 15.7546C13.7758 15.582 14.1672 15.3237 14.4954 14.9954C14.8237 14.6672 15.082 14.2758 15.2546 13.8448C15.4258 13.4175 15.5093 12.9602 15.5001 12.5C15.5093 12.0398 15.4258 11.5825 15.2546 11.1552C15.082 10.7242 14.8237 10.3328 14.4954 10.0046C14.1672 9.67631 13.7758 9.41805 13.3448 9.24541C12.9175 9.07421 12.4602 8.99073 12 8.99989Z" fill="white" stroke="white"/>
</svg>
