<svg width="24" height="24" viewBox="0 0 24 24" fill="none" xmlns="http://www.w3.org/2000/svg">
<g id="carbon:load-balancer-application">
<path id="Vector" d="M3 19.5H6V22.5H3V19.5ZM10.5 19.5H13.5V22.5H10.5V19.5ZM18 19.5H21V22.5H18V19.5ZM18.75 12H12.75V10.5H11.25V12H5.25C4.8523 12.0004 4.471 12.1586 4.18978 12.4398C3.90856 12.721 3.7504 13.1023 3.75 13.5V18H5.25V13.5H11.25V18H12.75V13.5H18.75V18H20.25V13.5C20.2496 13.1023 20.0914 12.721 19.8102 12.4398C19.529 12.1586 19.1477 12.0004 18.75 12ZM6.75 1.5V9H17.25V1.5H6.75ZM8.25 3H9.75V7.5H8.25V3ZM15.75 7.5H11.25V3H15.75V7.5Z" fill="white"/>
</g>
</svg>
