<svg width="28" height="28" viewBox="0 0 28 28" fill="none" xmlns="http://www.w3.org/2000/svg">
<rect width="28" height="28" fill="#006A90"/>
<path d="M25.8125 5.25H21V2.1875H19.25V5.25H8.75V2.1875H7V5.25H2.1875C1.83953 5.25041 1.50592 5.38882 1.25987 5.63487C1.01382 5.88092 0.875405 6.21453 0.875 6.5625V24.9375C0.875405 25.2855 1.01382 25.6191 1.25987 25.8651C1.50592 26.1112 1.83953 26.2496 2.1875 26.25H25.8125C26.1605 26.2496 26.4941 26.1112 26.7401 25.8651C26.9862 25.6191 27.1246 25.2855 27.125 24.9375V6.5625C27.1246 6.21453 26.9862 5.88092 26.7401 5.63487C26.4941 5.38882 26.1605 5.25041 25.8125 5.25ZM25.375 24.5H2.625V7H7V9.1875H8.75V7H19.25V9.1875H21V7H25.375V24.5Z" fill="#F8F8F8"/>
<path d="M6.125 12.25H7.875V14H6.125V12.25ZM10.9375 12.25H12.6875V14H10.9375V12.25ZM15.3125 12.25H17.0625V14H15.3125V12.25ZM20.125 12.25H21.875V14H20.125V12.25ZM6.125 16.1875H7.875V17.9375H6.125V16.1875ZM10.9375 16.1875H12.6875V17.9375H10.9375V16.1875ZM15.3125 16.1875H17.0625V17.9375H15.3125V16.1875ZM20.125 16.1875H21.875V17.9375H20.125V16.1875ZM6.125 20.125H7.875V21.875H6.125V20.125ZM10.9375 20.125H12.6875V21.875H10.9375V20.125ZM15.3125 20.125H17.0625V21.875H15.3125V20.125ZM20.125 20.125H21.875V21.875H20.125V20.125Z" fill="#F8F8F8"/>
</svg>
