<svg width="24" height="24" viewBox="0 0 24 24" fill="none" xmlns="http://www.w3.org/2000/svg">
<g id="clarity:contract-line">
<path id="Vector" d="M5.33291 5.46667H15.9996V6.53334H5.33291V5.46667ZM5.33291 10.8H10.7236V11.8667H5.33291V10.8ZM15.5849 8.13334H5.33291V9.20001H14.5189L15.5849 8.13334ZM8.52824 19.3813C8.70756 19.587 8.93515 19.7448 9.19058 19.8407C9.446 19.9366 9.72124 19.9675 9.99158 19.9307H15.1936C15.3173 19.9307 15.436 19.8815 15.5236 19.794C15.6111 19.7065 15.6602 19.5878 15.6602 19.464C15.6602 19.3402 15.6111 19.2215 15.5236 19.134C15.436 19.0465 15.3173 18.9973 15.1936 18.9973H9.99158C9.38424 18.9867 9.49224 18.4593 9.57758 18.296C9.68883 18.1043 9.77551 17.8994 9.83558 17.686C9.87544 17.5143 9.85665 17.3343 9.78222 17.1745C9.70778 17.0148 9.58199 16.8846 9.42491 16.8047C9.17254 16.691 8.88987 16.6631 8.62016 16.7254C8.35046 16.7876 8.10858 16.9365 7.93158 17.1493C7.70224 17.386 7.38358 17.748 7.07824 18.1C7.26691 17.3607 7.51158 16.412 7.75158 15.4867C7.82035 15.2758 7.80666 15.0468 7.71326 14.8456C7.61986 14.6445 7.45369 14.4862 7.24824 14.4027C7.02072 14.3246 6.77205 14.3358 6.55242 14.4339C6.3328 14.532 6.15857 14.7098 6.06491 14.9313C5.77691 15.4853 3.49691 19.306 3.47424 19.3447C3.44281 19.3973 3.42205 19.4556 3.41315 19.5162C3.40425 19.5769 3.40738 19.6387 3.42236 19.6981C3.43734 19.7575 3.46388 19.8134 3.50047 19.8626C3.53705 19.9118 3.58296 19.9532 3.63558 19.9847C3.74184 20.0482 3.86897 20.0668 3.98899 20.0366C4.10901 20.0063 4.2121 19.9296 4.27558 19.8233C4.36091 19.68 6.18091 16.6313 6.75491 15.6133C6.32291 17.28 5.84691 19.1347 5.81891 19.3013C5.78739 19.4239 5.79685 19.5534 5.84585 19.67C5.89484 19.7867 5.98068 19.8841 6.09024 19.9473C6.21228 20.0079 6.35099 20.026 6.48449 19.999C6.618 19.972 6.73871 19.9012 6.82758 19.798C6.91158 19.722 7.06891 19.5413 7.46558 19.0807C7.83515 18.646 8.21368 18.219 8.60091 17.8C8.74624 17.6467 8.83424 17.7147 8.74891 17.8653C8.58199 18.0763 8.47374 18.3276 8.4351 18.5938C8.39647 18.86 8.42817 19.1317 8.52824 19.3813Z" fill="white"/>
<path id="Vector_2" d="M18.6673 14.4634V21.3334H2.66732V2.66671H18.6673V5.99537L19.554 5.10871C19.6905 4.97409 19.8401 4.85348 20.0007 4.74871V2.00004C20.0007 1.82323 19.9304 1.65366 19.8054 1.52864C19.6804 1.40361 19.5108 1.33337 19.334 1.33337H2.00065C1.82384 1.33337 1.65427 1.40361 1.52925 1.52864C1.40422 1.65366 1.33398 1.82323 1.33398 2.00004V22C1.33398 22.1769 1.40422 22.3464 1.52925 22.4714C1.65427 22.5965 1.82384 22.6667 2.00065 22.6667H19.334C19.5108 22.6667 19.6804 22.5965 19.8054 22.4714C19.9304 22.3464 20.0007 22.1769 20.0007 22V14.2847C19.5917 14.5014 19.1188 14.5648 18.6673 14.4634Z" fill="white"/>
<path id="Vector_3" d="M22.7529 7.9073L22.4042 7.55863C22.5824 7.32314 22.6726 7.03273 22.6592 6.73772C22.6458 6.44271 22.5297 6.16167 22.3309 5.9433C22.0728 5.71585 21.7354 5.59958 21.392 5.61981C21.0486 5.64004 20.7271 5.79513 20.4976 6.05129L12.1475 14.4L11.5895 16.4946C11.5807 16.522 11.5796 16.5514 11.5864 16.5793C11.5933 16.6073 11.6077 16.6329 11.6281 16.6532C11.6485 16.6734 11.6742 16.6877 11.7022 16.6943C11.7302 16.7009 11.7595 16.6996 11.7869 16.6906L13.8742 16.126L21.6689 8.33129L21.9982 8.66129C22.0212 8.68427 22.0395 8.71155 22.0519 8.74157C22.0644 8.7716 22.0708 8.80379 22.0708 8.8363C22.0708 8.8688 22.0644 8.90099 22.0519 8.93102C22.0395 8.96104 22.0212 8.98832 21.9982 9.0113L18.7202 12.2893C18.6202 12.3894 18.5641 12.5251 18.5642 12.6665C18.5642 12.808 18.6205 12.9436 18.7206 13.0436C18.8206 13.1436 18.9563 13.1998 19.0978 13.1997C19.2393 13.1996 19.3749 13.1434 19.4749 13.0433L22.7529 9.7653C22.9993 9.51877 23.1377 9.1845 23.1377 8.83596C23.1377 8.48743 22.9993 8.15315 22.7529 7.90663V7.9073Z" fill="white"/>
</g>
</svg>
