<svg width="75" height="75" viewBox="0 0 75 75" fill="none" xmlns="http://www.w3.org/2000/svg">
<path d="M42.6107 23.3963C42.6107 24.7731 40.6698 25.8891 38.2752 25.8891H34.2645M36.8298 21.0451C37.2945 20.9509 37.7831 20.903 38.2752 20.9034C38.7714 20.9034 39.2487 20.9515 39.694 21.0398M39.694 21.0398C39.452 19.7945 37.6151 18.8259 35.3844 18.8259C32.9898 18.8259 31.0489 19.9419 31.0489 21.3188C31.0483 21.6146 31.1393 21.9079 31.3175 22.1849M39.694 21.0398C40.2058 21.1417 40.6803 21.2983 41.0932 21.5016M31.3175 22.1849C31.11 22.1615 30.8991 22.1496 30.6878 22.1496C28.8918 22.1501 27.4358 22.987 27.4358 24.0196C27.4358 25.0521 28.8918 25.8891 30.6878 25.8891H31.2295M31.3175 22.1849C31.7373 22.2324 32.137 22.3275 32.4936 22.4648" stroke="black" stroke-opacity="0.5" stroke-width="2.7845" stroke-linecap="round"/>
<path d="M52.048 9.03369H22.5427C21.3787 9.03369 20.4352 9.79956 20.4352 10.7443V34.693C20.4352 35.6378 21.3787 36.4036 22.5427 36.4036H52.048C53.2119 36.4036 54.1555 35.6378 54.1555 34.693V10.7443C54.1555 9.79956 53.2119 9.03369 52.048 9.03369Z" stroke="#2596BE" stroke-opacity="0.3" stroke-width="1.85633" stroke-linecap="round" stroke-linejoin="round"/>
<path d="M20.4352 15.876H54.1555" stroke="#2596BE" stroke-opacity="0.3" stroke-width="1.85633" stroke-linecap="round" stroke-linejoin="round"/>
<path d="M28.8661 9.03369V15.8762" stroke="#2596BE" stroke-opacity="0.3" stroke-width="1.85633" stroke-linecap="round" stroke-linejoin="round"/>
<path d="M73.5366 39.8274L73.5366 39.8298C73.5538 46.6881 72.5063 50.8352 70.0301 53.3191C67.5541 55.8028 63.416 56.8582 56.575 56.8582H18.1705C11.3298 56.8582 7.19066 55.803 4.71004 53.3224C2.22943 50.8418 1.17426 46.7026 1.17426 39.862V17.9659C1.17426 11.1252 2.22943 6.98607 4.71004 4.50545C7.19066 2.02484 11.3298 0.969669 18.1705 0.969669H56.5404C63.3811 0.969669 67.5202 2.02484 70.0009 4.50545C72.4815 6.98607 73.5366 11.1252 73.5366 17.9659V39.8274ZM18.1705 4.2938C15.4459 4.2938 13.217 4.41182 11.4187 4.77878C9.61031 5.14779 8.16363 5.78287 7.07554 6.87095C5.98746 7.95904 5.35238 9.40572 4.98337 11.2141C4.61641 13.0124 4.49839 15.2413 4.49839 17.9659V39.8274C4.49839 42.552 4.61641 44.7809 4.98337 46.5792C5.35238 48.3876 5.98746 49.8343 7.07555 50.9224C8.16363 52.0104 9.61031 52.6455 11.4187 53.0145C13.217 53.3815 15.4459 53.4995 18.1705 53.4995H56.5404C59.265 53.4995 61.4939 53.3815 63.2922 53.0145C65.1006 52.6455 66.5473 52.0104 67.6354 50.9224C68.7234 49.8343 69.3585 48.3876 69.7275 46.5792C70.0945 44.7809 70.2125 42.552 70.2125 39.8274V17.9659C70.2125 15.2413 70.0945 13.0124 69.7275 11.2141C69.3585 9.40572 68.7234 7.95904 67.6354 6.87095C66.5473 5.78287 65.1006 5.14779 63.2922 4.77878C61.4939 4.41182 59.265 4.2938 56.5404 4.2938H18.1705Z" stroke="#2596BE" stroke-opacity="0.3" stroke-width="1.85633"/>
<path d="M37.3738 73.3667C36.4704 73.3667 35.7117 72.608 35.7117 71.7046V55.1962C35.7117 54.2928 36.4704 53.5341 37.3738 53.5341C38.2772 53.5341 39.0359 54.2928 39.0359 55.1962V71.7046C39.0359 72.608 38.2772 73.3667 37.3738 73.3667Z" stroke="#2596BE" stroke-opacity="0.3" stroke-width="1.85633"/>
<path d="M71.9091 42.284H2.83632C1.93294 42.284 1.17426 41.5253 1.17426 40.622C1.17426 39.7186 1.93294 38.9599 2.83632 38.9599H71.9091C72.8125 38.9599 73.5712 39.7186 73.5712 40.622C73.5712 41.5254 72.8125 42.284 71.9091 42.284Z" stroke="#2596BE" stroke-opacity="0.3" stroke-width="1.85633"/>
<path d="M52.9103 73.3661H21.8275C20.9242 73.3661 20.1655 72.6074 20.1655 71.704C20.1655 70.8006 20.9242 70.0419 21.8275 70.0419H52.9103C53.8137 70.0419 54.5724 70.8006 54.5724 71.704C54.5724 72.6074 53.8137 73.3661 52.9103 73.3661Z" stroke="#2596BE" stroke-opacity="0.3" stroke-width="1.85633"/>
</svg>
