<svg width="24" height="24" viewBox="0 0 24 24" fill="none" xmlns="http://www.w3.org/2000/svg">
<g id="Group">
<path id="Vector" d="M17.75 9.893C18.5836 9.893 19.383 9.56186 19.9724 8.97244M17.75 9.893C16.9164 9.893 16.117 9.56186 15.5276 8.97244M17.75 9.893V12.25M19.9724 8.97244C20.5619 8.38301 20.893 7.58358 20.893 6.75M19.9724 8.97244L21.639 10.639M20.893 6.75C20.893 5.91642 20.5619 5.11699 19.9724 4.52756M20.893 6.75H23.25M19.9724 4.52756C19.383 3.93814 18.5836 3.607 17.75 3.607M19.9724 4.52756L21.639 2.861M17.75 3.607C16.9164 3.607 16.117 3.93814 15.5276 4.52756M17.75 3.607V1.25M15.5276 4.52756C14.9381 5.11699 14.607 5.91642 14.607 6.75M15.5276 4.52756L13.861 2.861M14.607 6.75C14.607 7.58358 14.9381 8.38301 15.5276 8.97244M14.607 6.75H12.25M15.5276 8.97244L13.861 10.639M17.226 1.25H18.274M21.269 2.491L22.009 3.231M23.25 6.226V7.274M22.009 10.269L21.269 11.009M18.274 12.25H17.226M14.231 11.009L13.491 10.269M12.25 7.274V6.226M13.491 3.231L14.231 2.491M7.5 15L9.173 13.745C9.34366 13.6168 9.53869 13.5248 9.74614 13.4747C9.95359 13.4245 10.1691 13.4172 10.3795 13.4533C10.5898 13.4893 10.7906 13.5679 10.9695 13.6843C11.1485 13.8007 11.3017 13.9523 11.42 14.13C11.5917 14.3877 11.6833 14.6904 11.6833 15C11.6833 15.3096 11.5917 15.6123 11.42 15.87L9.775 18.337C9.26951 19.0948 8.54596 19.6813 7.7 20.019L5.25 21M8.25 9.75L4.655 11.291C3.59285 11.7459 2.7464 12.592 2.291 13.654L1.114 16.4C0.873704 16.9606 0.749864 17.5641 0.75 18.174V23.25" stroke="white" stroke-width="1.5" stroke-linecap="round" stroke-linejoin="round"/>
<path id="Vector_2" d="M23.25 14.25V21C23.25 21.5967 23.0129 22.169 22.591 22.591C22.169 23.0129 21.5967 23.25 21 23.25H10.5C9.90326 23.25 9.33097 23.0129 8.90901 22.591C8.48705 22.169 8.25 21.5967 8.25 21V19.755M8.25 14.437V3C8.25 2.40326 8.48705 1.83097 8.90901 1.40901C9.33097 0.987053 9.90326 0.75 10.5 0.75H12.25" stroke="white" stroke-width="1.5" stroke-linecap="round" stroke-linejoin="round"/>
</g>
</svg>
