<svg width="76" height="71" viewBox="0 0 76 71" fill="none" xmlns="http://www.w3.org/2000/svg">
<path d="M64.8327 69.383H11.1222C11.6143 65.5458 15.1148 62.4756 19.4157 62.4756H28.6966H29.6247V61.5474V52.7836V51.8554H28.6966H5.4944C4.49322 51.8554 3.543 51.4794 2.85036 50.8253C2.15953 50.173 1.78213 49.3 1.78213 48.4017V4.58278V4.55715L1.78072 4.53156C1.73985 3.79221 1.95567 3.05535 2.40399 2.43279C2.82918 1.84235 3.44347 1.38342 4.16722 1.12688C4.31354 1.11903 4.46023 1.11926 4.60653 1.12756L4.67235 1.1313L4.73804 1.12569C4.96338 1.10646 5.19014 1.10646 5.41549 1.12569L5.45487 1.12905H5.4944H70.4605C71.4617 1.12905 72.4119 1.50511 73.1045 2.15916C73.7954 2.8115 74.1727 3.68452 74.1727 4.58278V48.4017C74.1727 49.3 73.7954 50.173 73.1045 50.8253C72.4119 51.4794 71.4617 51.8554 70.4605 51.8554H47.2583H46.3301V52.7836V61.5474V62.4756H47.2583H56.5392C60.8401 62.4756 64.3406 65.5458 64.8327 69.383ZM10.1348 8.03651H9.20667V8.96467V44.0198V44.948H10.1348H65.82H66.7482V44.0198V8.96467V8.03651H65.82H10.1348Z" stroke="#2596BE" stroke-opacity="0.3" stroke-width="1.85633"/>
<rect x="28.5519" y="23.6938" width="20.6259" height="14.8218" fill="white"/>
<rect x="27.6237" y="22.7657" width="22.4822" height="16.6781" stroke="#2596BE" stroke-opacity="0.3" stroke-width="1.85633"/>
<path d="M31.5004 24.0702V14.8008H45.3417V24.0702" stroke="#2596BE" stroke-opacity="0.3" stroke-width="1.85633"/>
</svg>
