<svg width="75" height="57" viewBox="0 0 75 57" fill="none" xmlns="http://www.w3.org/2000/svg">
<path d="M10.782 5.26322V5.23901L10.7807 5.21484C10.7385 4.4065 10.9621 3.60656 11.4172 2.93721C11.8454 2.30751 12.4565 1.82594 13.1662 1.55635H13.191H13.2189L13.2467 1.55468C13.3949 1.54577 13.5434 1.54577 13.6915 1.55468L13.7612 1.55887L13.8308 1.55258C14.0527 1.53253 14.276 1.53253 14.498 1.55258L14.5397 1.55635H14.5815H60.9319C61.915 1.55635 62.8579 1.94689 63.553 2.64207C64.2482 3.33724 64.6388 4.2801 64.6388 5.26322V37.7085V38.6366H65.5669H73.9088V51.6136C73.9088 53.6966 72.285 55.3204 70.202 55.3204H5.21877C3.13577 55.3204 1.51191 53.6966 1.51191 51.6136V38.6366H9.85381H10.782V37.7085V5.26322ZM19.1239 8.97009H18.1957V9.89825V37.7085V38.6366H19.1239H27.4658V46.9785V47.9067H28.3939H46.9341H47.8623V46.9785V38.6366H56.2042H57.1323V37.7085V9.89825V8.97009H56.2042H19.1239Z" stroke="#2596BE" stroke-opacity="0.3" stroke-width="1.85633"/>
<path d="M44.0725 14.9971H32.192C31.3718 14.9971 30.7069 15.662 30.7069 16.4821V22.4224C30.7069 23.2426 31.3718 23.9075 32.192 23.9075H44.0725C44.8927 23.9075 45.5576 23.2426 45.5576 22.4224V16.4821C45.5576 15.662 44.8927 14.9971 44.0725 14.9971Z" stroke="#2596BE" stroke-opacity="0.3" stroke-width="1.85633" stroke-linecap="round" stroke-linejoin="round"/>
<path d="M33.6759 20.938V20.9456" stroke="#2596BE" stroke-opacity="0.3" stroke-width="1.85633" stroke-linecap="round" stroke-linejoin="round"/>
<path d="M42.588 20.938V20.9456" stroke="#2596BE" stroke-opacity="0.3" stroke-width="1.85633" stroke-linecap="round" stroke-linejoin="round"/>
<path d="M36.65 20.938H39.6202" stroke="#2596BE" stroke-opacity="0.3" stroke-width="1.85633" stroke-linecap="round" stroke-linejoin="round"/>
</svg>
