<svg width="75" height="75" viewBox="0 0 75 75" fill="none" xmlns="http://www.w3.org/2000/svg">
<path d="M30.329 34.6674L22.5554 37.1743L24.4784 43.137L32.252 40.6301M30.329 34.6674L32.252 40.6301M30.329 34.6674L42.3017 28.2463L45.7203 38.8467L32.252 40.6301M48.21 29.6323L49.6234 29.1765M48.358 32.5103L51.8914 31.3708M49.9193 34.9325L51.3327 34.4767" stroke="black" stroke-opacity="0.5" stroke-width="1.85633" stroke-linecap="round" stroke-linejoin="round"/>
<path d="M9.80783 59.1104H65.4978" stroke="#2596BE" stroke-opacity="0.3" stroke-width="1.85633" stroke-linecap="round" stroke-linejoin="round"/>
<path d="M56.2171 18.8901H19.0905C17.3818 18.8901 15.9966 20.2753 15.9966 21.984V46.7351C15.9966 48.4438 17.3818 49.829 19.0905 49.829H56.2171C57.9258 49.829 59.311 48.4438 59.311 46.7351V21.984C59.311 20.2753 57.9258 18.8901 56.2171 18.8901Z" stroke="#2596BE" stroke-opacity="0.3" stroke-width="1.85633" stroke-linecap="round" stroke-linejoin="round"/>
</svg>
