<svg width="133" height="133" viewBox="0 0 133 133" fill="none" xmlns="http://www.w3.org/2000/svg">
<path d="M91.3488 66.367L125.436 36.7524V95.6436L91.3488 66.367ZM47.4256 71.3822L59.3956 81.7729C61.2742 83.3689 63.7236 84.3331 66.4003 84.3331H66.4945H66.5665C69.2487 84.3331 71.6981 83.3633 73.5989 81.7562L73.5822 81.7673L85.5522 71.3767L121.939 102.626H11.0556L47.4256 71.3822ZM11.0057 29.7311H122.005L68.689 76.0372C68.0895 76.5114 67.3474 76.7691 66.5831 76.7687H66.5055H66.4335C65.6665 76.7697 64.9219 76.5098 64.3221 76.0317L64.3277 76.0372L11.0057 29.7311ZM7.56437 36.7468L41.6456 66.3615L7.56437 95.6215V36.7468ZM127.264 23.2196C125.934 22.5546 124.372 22.1667 122.715 22.1667H10.302C8.69577 22.1671 7.11165 22.5408 5.67467 23.2584L5.73562 23.2307C4.01534 24.0792 2.56661 25.3918 1.55308 27.0203C0.53954 28.6488 0.00159239 30.5283 0 32.4465L0 99.8996C0.00293378 102.63 1.08867 105.247 3.01899 107.177C4.94931 109.107 7.56654 110.193 10.2964 110.196H122.698C125.428 110.193 128.045 109.107 129.975 107.177C131.906 105.247 132.992 102.63 132.994 99.8996V32.4465C132.994 28.4177 130.672 24.9264 127.292 23.2473L127.231 23.2196H127.264Z" fill="#2596BE"/>
</svg>
