<svg width="24" height="24" viewBox="0 0 24 24" fill="none" xmlns="http://www.w3.org/2000/svg">
<g id="eos-icons:cronjob">
<path id="Vector" d="M10.0208 1.021H16.0208V3.021H10.0208V1.021ZM20.0398 7.41L21.4738 5.976L20.0598 4.562L18.6268 5.995C17.0567 4.73681 15.1099 4.04175 13.098 4.02109C11.086 4.00042 9.12537 4.65533 7.52977 5.881L8.94977 7.321C10.1362 6.47836 11.5546 6.02418 13.0098 6.021L13.0198 6.022V13.002L17.9728 17.96C16.995 18.9424 15.7475 19.6124 14.3886 19.8852C13.0296 20.158 11.6203 20.0212 10.3391 19.4923C9.05792 18.9634 7.96259 18.066 7.19187 16.914C6.42115 15.7619 6.00974 14.4071 6.00977 13.021H9.00977L5.00977 9.021L1.00977 13.021H4.00977C4.0084 14.4592 4.35171 15.8767 5.01093 17.1549C5.67014 18.4331 6.62607 19.5347 7.79862 20.3674C8.97118 21.2001 10.3262 21.7397 11.7502 21.9409C13.1742 22.1422 14.6257 21.9993 15.9832 21.5242C17.3406 21.049 18.5643 20.2555 19.552 19.2101C20.5396 18.1647 21.2623 16.8978 21.6596 15.5156C22.0568 14.1334 22.1171 12.6761 21.8353 11.2658C21.5534 9.85556 20.9377 8.53336 20.0398 7.41Z" fill="white"/>
</g>
</svg>
