<svg width="24" height="24" viewBox="0 0 24 24" fill="none" xmlns="http://www.w3.org/2000/svg">
<g id="streamline:interface-logout-arrow-exit-frame-leave-logout-rectangle-right">
<path id="Vector" d="M16.286 17.9998V21.4284C16.286 21.883 16.1054 22.3191 15.7839 22.6405C15.4624 22.962 15.0264 23.1426 14.5717 23.1426H2.57171C2.11705 23.1426 1.68102 22.962 1.35952 22.6405C1.03803 22.3191 0.857422 21.883 0.857422 21.4284V2.57122C0.857422 2.11656 1.03803 1.68053 1.35952 1.35904C1.68102 1.03755 2.11705 0.856934 2.57171 0.856934H14.5717C15.0264 0.856934 15.4624 1.03755 15.7839 1.35904C16.1054 1.68053 16.286 2.11656 16.286 2.57122V5.99979M11.1431 11.9998H23.1431M23.1431 11.9998L19.7146 8.57122M23.1431 11.9998L19.7146 15.4284" stroke="white" stroke-width="1.71429" stroke-linecap="round" stroke-linejoin="round"/>
</g>
</svg>
