<svg width="25" height="24" viewBox="0 0 25 24" fill="none" xmlns="http://www.w3.org/2000/svg">
<g id="mi:filter">
<path id="Vector" d="M9.5 5.00001C9.23478 5.00001 8.98043 5.10537 8.79289 5.2929C8.60536 5.48044 8.5 5.73479 8.5 6.00001C8.5 6.26523 8.60536 6.51958 8.79289 6.70712C8.98043 6.89465 9.23478 7.00001 9.5 7.00001C9.76522 7.00001 10.0196 6.89465 10.2071 6.70712C10.3946 6.51958 10.5 6.26523 10.5 6.00001C10.5 5.73479 10.3946 5.48044 10.2071 5.2929C10.0196 5.10537 9.76522 5.00001 9.5 5.00001ZM6.67 5.00001C6.8766 4.41448 7.25974 3.90744 7.7666 3.5488C8.27346 3.19015 8.87909 2.99756 9.5 2.99756C10.1209 2.99756 10.7265 3.19015 11.2334 3.5488C11.7403 3.90744 12.1234 4.41448 12.33 5.00001H19.5C19.7652 5.00001 20.0196 5.10537 20.2071 5.2929C20.3946 5.48044 20.5 5.73479 20.5 6.00001C20.5 6.26523 20.3946 6.51958 20.2071 6.70712C20.0196 6.89465 19.7652 7.00001 19.5 7.00001H12.33C12.1234 7.58554 11.7403 8.09258 11.2334 8.45122C10.7265 8.80986 10.1209 9.00246 9.5 9.00246C8.87909 9.00246 8.27346 8.80986 7.7666 8.45122C7.25974 8.09258 6.8766 7.58554 6.67 7.00001H5.5C5.23478 7.00001 4.98043 6.89465 4.79289 6.70712C4.60536 6.51958 4.5 6.26523 4.5 6.00001C4.5 5.73479 4.60536 5.48044 4.79289 5.2929C4.98043 5.10537 5.23478 5.00001 5.5 5.00001H6.67ZM15.5 11C15.2348 11 14.9804 11.1054 14.7929 11.2929C14.6054 11.4804 14.5 11.7348 14.5 12C14.5 12.2652 14.6054 12.5196 14.7929 12.7071C14.9804 12.8947 15.2348 13 15.5 13C15.7652 13 16.0196 12.8947 16.2071 12.7071C16.3946 12.5196 16.5 12.2652 16.5 12C16.5 11.7348 16.3946 11.4804 16.2071 11.2929C16.0196 11.1054 15.7652 11 15.5 11ZM12.67 11C12.8766 10.4145 13.2597 9.90744 13.7666 9.5488C14.2735 9.19015 14.8791 8.99756 15.5 8.99756C16.1209 8.99756 16.7265 9.19015 17.2334 9.5488C17.7403 9.90744 18.1234 10.4145 18.33 11H19.5C19.7652 11 20.0196 11.1054 20.2071 11.2929C20.3946 11.4804 20.5 11.7348 20.5 12C20.5 12.2652 20.3946 12.5196 20.2071 12.7071C20.0196 12.8947 19.7652 13 19.5 13H18.33C18.1234 13.5855 17.7403 14.0926 17.2334 14.4512C16.7265 14.8099 16.1209 15.0025 15.5 15.0025C14.8791 15.0025 14.2735 14.8099 13.7666 14.4512C13.2597 14.0926 12.8766 13.5855 12.67 13H5.5C5.23478 13 4.98043 12.8947 4.79289 12.7071C4.60536 12.5196 4.5 12.2652 4.5 12C4.5 11.7348 4.60536 11.4804 4.79289 11.2929C4.98043 11.1054 5.23478 11 5.5 11H12.67ZM9.5 17C9.23478 17 8.98043 17.1054 8.79289 17.2929C8.60536 17.4804 8.5 17.7348 8.5 18C8.5 18.2652 8.60536 18.5196 8.79289 18.7071C8.98043 18.8947 9.23478 19 9.5 19C9.76522 19 10.0196 18.8947 10.2071 18.7071C10.3946 18.5196 10.5 18.2652 10.5 18C10.5 17.7348 10.3946 17.4804 10.2071 17.2929C10.0196 17.1054 9.76522 17 9.5 17ZM6.67 17C6.8766 16.4145 7.25974 15.9074 7.7666 15.5488C8.27346 15.1902 8.87909 14.9976 9.5 14.9976C10.1209 14.9976 10.7265 15.1902 11.2334 15.5488C11.7403 15.9074 12.1234 16.4145 12.33 17H19.5C19.7652 17 20.0196 17.1054 20.2071 17.2929C20.3946 17.4804 20.5 17.7348 20.5 18C20.5 18.2652 20.3946 18.5196 20.2071 18.7071C20.0196 18.8947 19.7652 19 19.5 19H12.33C12.1234 19.5855 11.7403 20.0926 11.2334 20.4512C10.7265 20.8099 10.1209 21.0025 9.5 21.0025C8.87909 21.0025 8.27346 20.8099 7.7666 20.4512C7.25974 20.0926 6.8766 19.5855 6.67 19H5.5C5.23478 19 4.98043 18.8947 4.79289 18.7071C4.60536 18.5196 4.5 18.2652 4.5 18C4.5 17.7348 4.60536 17.4804 4.79289 17.2929C4.98043 17.1054 5.23478 17 5.5 17H6.67Z" fill="white"/>
</g>
</svg>
