<svg width="30" height="30" viewBox="0 0 30 30" fill="none" xmlns="http://www.w3.org/2000/svg">
<path d="M3.75 15C3.75 16.4774 4.04099 17.9403 4.60636 19.3052C5.17172 20.6701 6.00039 21.9103 7.04505 22.955C8.08971 23.9996 9.3299 24.8283 10.6948 25.3936C12.0597 25.959 13.5226 26.25 15 26.25C16.4774 26.25 17.9403 25.959 19.3052 25.3936C20.6701 24.8283 21.9103 23.9996 22.955 22.955C23.9996 21.9103 24.8283 20.6701 25.3936 19.3052C25.959 17.9403 26.25 16.4774 26.25 15C26.25 13.5226 25.959 12.0597 25.3936 10.6948C24.8283 9.3299 23.9996 8.08971 22.955 7.04505C21.9103 6.00039 20.6701 5.17172 19.3052 4.60636C17.9403 4.04099 16.4774 3.75 15 3.75C13.5226 3.75 12.0597 4.04099 10.6948 4.60636C9.3299 5.17172 8.08971 6.00039 7.04505 7.04505C6.00039 8.08971 5.17172 9.3299 4.60636 10.6948C4.04099 12.0597 3.75 13.5226 3.75 15Z" stroke="black" stroke-width="2" stroke-linecap="round" stroke-linejoin="round"/>
<path d="M17.3337 12.1875C17.0262 11.5875 16.4487 11.2263 15.8337 11.25H14.1663C13.2463 11.25 12.5 12.0875 12.5 13.125C12.5 14.1588 13.2463 14.9987 14.1663 14.9987H15.8337C16.7537 14.9987 17.5 15.8375 17.5 16.8737C17.5 17.9087 16.7537 18.7475 15.8337 18.7475H14.1663C13.5513 18.7713 12.9738 18.41 12.6663 17.81M15 8.75V11.25M15 18.75V21.25M7.5 7.5L9.375 9.375M20.625 20.625L22.5 22.5" stroke="black" stroke-width="2" stroke-linecap="round" stroke-linejoin="round"/>
<line x1="6.05333" y1="5.90283" x2="23.7018" y2="23.2876" stroke="black" stroke-width="2"/>
</svg>
