<svg width="30" height="30" viewBox="0 0 30 30" fill="none" xmlns="http://www.w3.org/2000/svg">
<g clip-path="url(#clip0_3157_3080)">
<path d="M15 30C23.2843 30 30 23.2843 30 15C30 6.71573 23.2843 0 15 0C6.71573 0 0 6.71573 0 15C0 23.2843 6.71573 30 15 30Z" fill="#F1B32B"/>
<path d="M14.7656 3.75C8.68125 3.75 3.75 8.68125 3.75 14.7656C3.75 20.85 8.68125 25.7812 14.7656 25.7812C20.85 25.7812 25.7812 20.85 25.7812 14.7656C25.7812 11.8441 24.6207 9.04223 22.5548 6.9764C20.489 4.91057 17.6872 3.75 14.7656 3.75ZM14.7656 23.0344C12.5726 23.0344 10.4694 22.1632 8.91874 20.6125C7.36804 19.0618 6.49687 16.9586 6.49687 14.7656C6.49687 12.5726 7.36804 10.4694 8.91874 8.91874C10.4694 7.36804 12.5726 6.49687 14.7656 6.49687C16.9586 6.49687 19.0618 7.36804 20.6125 8.91874C22.1632 10.4694 23.0344 12.5726 23.0344 14.7656C23.0344 16.9586 22.1632 19.0618 20.6125 20.6125C19.0618 22.1632 16.9586 23.0344 14.7656 23.0344ZM12.0187 14.775L14.775 18.9L17.5125 14.775L14.775 10.6406L12.0187 14.775Z" fill="white"/>
</g>
<defs>
<clipPath id="clip0_3157_3080">
<rect width="30" height="30" fill="white"/>
</clipPath>
</defs>
</svg>
