<svg width="32" height="32" viewBox="0 0 32 32" fill="none" xmlns="http://www.w3.org/2000/svg">
<g id="heroicons:paper-clip">
<path id="Vector" d="M7.49996 16.9852L17.7573 27.2425C18.8825 28.3677 20.4087 28.9999 22 28.9999C23.5913 28.9999 25.1174 28.3677 26.2426 27.2425C27.3679 26.1173 28 24.5912 28 22.9999C28 21.4085 27.3679 19.8824 26.2426 18.7572L11.656 4.17052C11.2844 3.79914 10.8433 3.50458 10.358 3.30366C9.87256 3.10274 9.35235 2.99939 8.82702 2.99951C8.30169 2.99964 7.78153 3.10323 7.29623 3.30438C6.81093 3.50553 6.37001 3.8003 5.99863 4.17185C5.62725 4.5434 5.33269 4.98447 5.13177 5.46986C4.93085 5.95525 4.8275 6.47546 4.82763 7.00079C4.82775 7.52613 4.93134 8.04629 5.13249 8.53159C5.33364 9.01688 5.62841 9.45781 5.99997 9.82918L20.5973 24.4265C20.976 24.7896 21.4821 24.9879 22.0067 24.9813C22.5313 24.9746 23.0322 24.7622 23.4016 24.3897C23.7709 24.0171 23.9792 23.5144 23.9813 22.9898C23.9835 22.4652 23.7795 21.9608 23.4133 21.5852L13 11.1719M20.5853 24.4132L20.5986 24.4265" stroke="#444444" stroke-width="1.5" stroke-linecap="round" stroke-linejoin="round"/>
</g>
</svg>
