<svg width="24" height="24" viewBox="0 0 24 24" fill="none" xmlns="http://www.w3.org/2000/svg">
<path d="M5 23H19M7.757 5.757L9.879 7.879M9.879 7.879C10.4416 7.31639 11.2044 7 12 7M9.879 7.879C9.31639 8.44161 9 9.20435 9 10M9 10H6M9 10C9 10.7956 9.31639 11.5584 9.879 12.121M9.879 12.121L7.757 14.243M9.879 12.121C10.4416 12.6836 11.2044 13 12 13M12 13V16M12 13C12.7956 13 13.5584 12.6836 14.121 12.121M14.121 12.121L16.243 14.243M14.121 12.121C14.6836 11.5584 15 10.7956 15 10M18 10H15M15 10C15 9.20435 14.6836 8.44161 14.121 7.879M16.243 5.757L14.121 7.879M14.121 7.879C13.5584 7.31639 12.7956 7 12 7M12 7V4M1 19H23V1H1V19ZM8 23H16V19H8V23Z" stroke="white" stroke-width="2"/>
</svg>
