<svg width="24" height="24" viewBox="0 0 24 24" fill="none" xmlns="http://www.w3.org/2000/svg">
<path d="M3 12C3 15.771 3 19.657 4.318 20.828C5.636 22 7.758 22 12 22C16.243 22 18.364 22 19.682 20.828C21 19.657 21 15.771 21 12" stroke="#EEF3F4" stroke-width="2"/>
<path d="M14.66 14.202L20.668 12.4C21.263 12.221 21.561 12.132 21.75 11.918C21.787 11.8762 21.8205 11.8314 21.85 11.784C22 11.541 22 11.231 22 10.609C22 8.159 22 6.934 21.327 6.107C21.1976 5.94786 21.0521 5.80243 20.893 5.673C20.066 5 18.841 5 16.391 5H7.61C5.16 5 3.935 5 3.108 5.673C2.948 5.803 2.803 5.948 2.674 6.107C2 6.934 2 8.159 2 10.609C2 11.231 2 11.541 2.15 11.784C2.18 11.831 2.213 11.876 2.25 11.918C2.44 12.132 2.737 12.221 3.332 12.4L9.34 14.202M6.5 5C7.323 4.98 8.16 4.455 8.44 3.68L8.475 3.577L8.5 3.5C8.542 3.373 8.564 3.31 8.586 3.254C8.72726 2.90281 8.96529 2.59892 9.27241 2.37765C9.57954 2.15638 9.94316 2.02681 10.321 2.004C10.38 2 10.448 2 10.58 2H13.418C13.551 2 13.618 2 13.678 2.004C14.0558 2.02681 14.4195 2.15638 14.7266 2.37765C15.0337 2.59892 15.2717 2.90281 15.413 3.254C15.436 3.31 15.457 3.374 15.499 3.5L15.525 3.577C15.543 3.63 15.551 3.657 15.56 3.68C15.84 4.455 16.676 4.98 17.499 5" stroke="#EEF3F4" stroke-width="2"/>
<path d="M14 12.5H10C9.86739 12.5 9.74021 12.5527 9.64645 12.6464C9.55268 12.7402 9.5 12.8674 9.5 13V15.162C9.50002 15.2619 9.52994 15.3594 9.58591 15.4421C9.64187 15.5248 9.72131 15.5889 9.814 15.626L10.514 15.906C11.4679 16.2877 12.5321 16.2877 13.486 15.906L14.186 15.626C14.2787 15.5889 14.3581 15.5248 14.4141 15.4421C14.4701 15.3594 14.5 15.2619 14.5 15.162V13C14.5 12.8674 14.4473 12.7402 14.3536 12.6464C14.2598 12.5527 14.1326 12.5 14 12.5Z" stroke="#EEF3F4" stroke-width="2" stroke-linecap="round"/>
</svg>
