<svg width="24" height="24" viewBox="0 0 24 24" fill="none" xmlns="http://www.w3.org/2000/svg">
<g id="Frame 10242">
<path id="Vector" d="M12 17.2381C11.4696 17.2381 10.9609 17.0374 10.5858 16.6802C10.2107 16.323 10 15.8385 10 15.3333C10 14.2762 10.89 13.4286 12 13.4286C12.5304 13.4286 13.0391 13.6293 13.4142 13.9865C13.7893 14.3437 14 14.8282 14 15.3333C14 15.8385 13.7893 16.323 13.4142 16.6802C13.0391 17.0374 12.5304 17.2381 12 17.2381ZM18 20.0952V10.5714H6V20.0952H18ZM18 8.66667C18.5304 8.66667 19.0391 8.86735 19.4142 9.22456C19.7893 9.58177 20 10.0663 20 10.5714V20.0952C20 20.6004 19.7893 21.0849 19.4142 21.4421C19.0391 21.7993 18.5304 22 18 22H6C5.46957 22 4.96086 21.7993 4.58579 21.4421C4.21071 21.0849 4 20.6004 4 20.0952V10.5714C4 9.51429 4.89 8.66667 6 8.66667H7V6.7619C7 5.49897 7.52678 4.28776 8.46447 3.39473C9.40215 2.5017 10.6739 2 12 2C12.6566 2 13.3068 2.12317 13.9134 2.36248C14.52 2.60179 15.0712 2.95255 15.5355 3.39473C15.9998 3.83691 16.3681 4.36186 16.6194 4.9396C16.8707 5.51734 17 6.13656 17 6.7619V8.66667H18ZM12 3.90476C11.2044 3.90476 10.4413 4.20578 9.87868 4.7416C9.31607 5.27742 9 6.00414 9 6.7619V8.66667H15V6.7619C15 6.00414 14.6839 5.27742 14.1213 4.7416C13.5587 4.20578 12.7956 3.90476 12 3.90476Z" fill="#EEF3F4"/>
</g>
</svg>
