<svg width="27" height="41" viewBox="0 0 27 41" fill="none" xmlns="http://www.w3.org/2000/svg">
<g id="logos:figma">
<path id="Vector" d="M6.75 40.5C10.476 40.5 13.5 37.476 13.5 33.75V27H6.75C3.024 27 0 30.024 0 33.75C0 37.476 3.024 40.5 6.75 40.5Z" fill="#0ACF83"/>
<path id="Vector_2" d="M0 20.25C0 16.524 3.024 13.5 6.75 13.5H13.5V27H6.75C3.024 27 0 23.976 0 20.25Z" fill="#A259FF"/>
<path id="Vector_3" d="M0 6.75C0 3.024 3.024 0 6.75 0H13.5V13.5H6.75C3.024 13.5 0 10.476 0 6.75Z" fill="#F24E1E"/>
<path id="Vector_4" d="M13.5 0H20.25C23.976 0 27 3.024 27 6.75C27 10.476 23.976 13.5 20.25 13.5H13.5V0Z" fill="#FF7262"/>
<path id="Vector_5" d="M27 20.25C27 23.976 23.976 27 20.25 27C16.524 27 13.5 23.976 13.5 20.25C13.5 16.524 16.524 13.5 20.25 13.5C23.976 13.5 27 16.524 27 20.25Z" fill="#1ABCFE"/>
</g>
</svg>
