<svg width="32" height="32" viewBox="0 0 32 32" fill="none" xmlns="http://www.w3.org/2000/svg">
<g id="ic:twotone-mark-email-unread">
<path id="Vector" opacity="0.3" d="M5.33398 8H18.8007C19.094 9.42667 19.854 10.6667 20.894 11.6133L16.0007 14.6667L5.33398 8ZM5.33398 10.6667V24H26.6673V13.2C25.4639 13.4467 24.215 13.345 23.0673 12.9067L16.0007 17.3333L5.33398 10.6667Z" fill="#FAFAFA"/>
<path id="Vector_2" d="M26.666 13.1998C27.6527 12.9998 28.5593 12.5598 29.3327 11.9732V23.9998C29.3327 25.4665 28.1327 26.6665 26.666 26.6665H5.33268C3.86602 26.6665 2.66602 25.4665 2.66602 23.9998V7.99984C2.66602 6.53317 3.86602 5.33317 5.33268 5.33317H18.7994C18.7194 5.75984 18.666 6.21317 18.666 6.6665C18.666 7.11984 18.7194 7.57317 18.7994 7.99984H5.33268L15.9993 14.6665L20.8927 11.6132C21.5194 12.1865 22.2527 12.6265 23.066 12.9198L15.9993 17.3332L5.33268 10.6665V23.9998H26.666V13.1998ZM21.3327 6.6665C21.3327 8.87984 23.1194 10.6665 25.3327 10.6665C27.546 10.6665 29.3327 8.87984 29.3327 6.6665C29.3327 4.45317 27.546 2.6665 25.3327 2.6665C23.1194 2.6665 21.3327 4.45317 21.3327 6.6665Z" fill="#FAFAFA"/>
</g>
</svg>
