<svg width="24" height="24" viewBox="0 0 24 24" fill="none" xmlns="http://www.w3.org/2000/svg">
<path d="M17.0328 7.21641C16.9137 7.21641 16.8005 7.13625 16.8005 7.01913V4.05273C16.8005 3.93561 16.7361 3.84009 16.6166 3.84009H7.38383C7.26431 3.84009 7.20047 3.93561 7.20047 4.05273V7.01913C7.20047 7.13625 7.07135 7.20009 6.95135 7.20009H0.695989C0.577909 7.20009 0.480469 7.32825 0.480469 7.44393V10.7415C0.480469 10.8577 0.577909 11.0401 0.695989 11.0401H10.7693C10.8888 11.0401 11.0405 10.8577 11.0405 10.7415V10.0383C11.0405 9.92121 11.0846 9.60009 11.2037 9.60009H12.7977C12.9168 9.60009 12.9605 9.92121 12.9605 10.0383V10.7415C12.9605 10.8577 13.1121 11.0401 13.2307 11.0401H23.3035C23.4235 11.0401 23.5205 10.8577 23.5205 10.7415V7.44393C23.5205 7.32777 23.4235 7.20009 23.304 7.20009H17.0491L17.0328 7.21641ZM8.68511 7.20009C8.56607 7.20009 8.64047 7.13625 8.64047 7.01961V5.33337C8.64047 5.21577 8.56607 5.28009 8.68511 5.28009H15.3158C15.4349 5.28009 15.3605 5.21577 15.3605 5.33337V7.01961C15.3605 7.13625 15.4349 7.20009 15.3158 7.20009H8.68511ZM12.9869 14.2618C12.9869 14.378 12.9168 14.4001 12.7977 14.4001H11.2037C11.0846 14.4001 11.0405 14.4514 11.0405 14.3353V11.965C11.0405 11.8489 10.8888 11.5201 10.7697 11.5201H0.695989C0.577909 11.5201 0.480469 11.8489 0.480469 11.965V18.987C0.481225 19.0437 0.504249 19.0978 0.544572 19.1377C0.584895 19.1775 0.639281 19.2 0.695989 19.2001H23.304C23.3608 19.2003 23.4155 19.1781 23.456 19.1383C23.4965 19.0985 23.5197 19.0443 23.5205 18.9874V11.965C23.5205 11.8489 23.4235 11.5201 23.304 11.5201H13.2307C13.1121 11.5201 12.9605 11.8489 12.9605 11.965V14.3353L12.9869 14.2618Z" fill="white"/>
</svg>
