<svg width="29" height="29" viewBox="0 0 29 29" fill="none" xmlns="http://www.w3.org/2000/svg">
<path d="M4.83268 9.66667C4.83268 7.10291 5.85113 4.64415 7.66398 2.8313C9.47684 1.01845 11.9356 0 14.4993 0C17.0631 0 19.5219 1.01845 21.3347 2.8313C23.1476 4.64415 24.166 7.10291 24.166 9.66667V15.3422L26.5827 18.9672V24.1667H19.8027C19.5279 25.3674 18.8537 26.4393 17.8904 27.207C16.9271 27.9747 15.7317 28.3928 14.5 28.3928C13.2682 28.3928 12.0728 27.9747 11.1095 27.207C10.1463 26.4393 9.47203 25.3674 9.19718 24.1667H2.41602V18.9672L4.83268 15.3422V9.66667ZM11.7298 24.1667C11.9647 24.7059 12.3519 25.1648 12.8439 25.4871C13.3358 25.8094 13.9112 25.9811 14.4993 25.9811C15.0875 25.9811 15.6629 25.8094 16.1548 25.4871C16.6468 25.1648 17.034 24.7059 17.2688 24.1667H11.7298ZM14.4993 2.41667C12.5765 2.41667 10.7325 3.1805 9.37283 4.54014C8.01319 5.89978 7.24935 7.74385 7.24935 9.66667V16.0745L4.83268 19.6995V21.75H24.166V19.6995L21.7493 16.0745V9.66667C21.7493 7.74385 20.9855 5.89978 19.6259 4.54014C18.2662 3.1805 16.4222 2.41667 14.4993 2.41667Z" fill="white"/>
</svg>
