<svg width="64" height="21" viewBox="0 0 64 21" fill="none" xmlns="http://www.w3.org/2000/svg">
<rect width="64" height="21" rx="10.5" fill="#EBEBEB"/>
<rect x="5" y="3" width="54" height="15" rx="7.5" fill="#D9D9D9"/>
<rect x="7.5" y="4.5" width="49" height="12" rx="6" fill="#21EC5A" stroke="#E3EDFF"/>
<rect x="41.5" y="5.5" width="15" height="12" rx="6" fill="#D9D9D9" stroke="#E3EDFF"/>
<path d="M17.3126 14.1174C16.8926 14.1174 16.5339 14.0222 16.2365 13.8317C15.9391 13.6413 15.7109 13.3778 15.5517 13.0413C15.3926 12.7048 15.313 12.3187 15.313 11.883C15.313 11.4396 15.3939 11.0509 15.5557 10.717C15.7174 10.383 15.947 10.1235 16.2443 9.93826C16.5443 9.75043 16.9004 9.65652 17.3126 9.65652C17.7352 9.65652 18.0952 9.75174 18.3926 9.94217C18.6926 10.13 18.9209 10.3922 19.0774 10.7287C19.2365 11.0626 19.3161 11.4474 19.3161 11.883C19.3161 12.3265 19.2365 12.7165 19.0774 13.053C18.9183 13.387 18.6887 13.6478 18.3887 13.8357C18.0887 14.0235 17.73 14.1174 17.3126 14.1174ZM17.3126 13.5657C17.7822 13.5657 18.1317 13.4104 18.3613 13.1C18.5909 12.787 18.7057 12.3813 18.7057 11.883C18.7057 11.3717 18.5896 10.9648 18.3574 10.6622C18.1278 10.3596 17.7796 10.2083 17.3126 10.2083C16.997 10.2083 16.7361 10.28 16.53 10.4235C16.3265 10.5643 16.1739 10.7613 16.0722 11.0143C15.973 11.2648 15.9235 11.5543 15.9235 11.883C15.9235 12.3917 16.0409 12.8 16.2757 13.1078C16.5104 13.413 16.8561 13.5657 17.3126 13.5657ZM23.2315 14V11.8439C23.2315 11.6091 23.2093 11.3939 23.1649 11.1983C23.1206 11 23.0488 10.8278 22.9497 10.6817C22.8532 10.533 22.7267 10.4183 22.5701 10.3374C22.4162 10.2565 22.2284 10.2161 22.0067 10.2161C21.8032 10.2161 21.6232 10.2513 21.4667 10.3217C21.3128 10.3922 21.1823 10.4939 21.0754 10.627C20.971 10.7574 20.8915 10.9165 20.8367 11.1043C20.7819 11.2922 20.7545 11.5061 20.7545 11.7461L20.3475 11.6561C20.3475 11.223 20.4232 10.8591 20.5745 10.5643C20.7258 10.2696 20.9345 10.0465 21.2006 9.89522C21.4667 9.74391 21.7719 9.66826 22.1162 9.66826C22.3693 9.66826 22.5897 9.70739 22.7775 9.78565C22.968 9.86391 23.1284 9.96956 23.2588 10.1026C23.3919 10.2357 23.4988 10.3883 23.5797 10.5604C23.6606 10.73 23.7193 10.9113 23.7558 11.1043C23.7923 11.2948 23.8106 11.4852 23.8106 11.6757V14H23.2315ZM20.1754 14V9.77391H20.6958V10.8148H20.7545V14H20.1754ZM24.9043 14V8.24783H25.4795V14H24.9043ZM26.7309 8.97174V8.32609H27.3061V8.97174H26.7309ZM26.7309 14V9.77391H27.3061V14H26.7309ZM31.5314 14V11.8439C31.5314 11.6091 31.5092 11.3939 31.4649 11.1983C31.4205 11 31.3488 10.8278 31.2496 10.6817C31.1531 10.533 31.0266 10.4183 30.8701 10.3374C30.7162 10.2565 30.5283 10.2161 30.3066 10.2161C30.1031 10.2161 29.9231 10.2513 29.7666 10.3217C29.6127 10.3922 29.4823 10.4939 29.3753 10.627C29.271 10.7574 29.1914 10.9165 29.1366 11.1043C29.0818 11.2922 29.0544 11.5061 29.0544 11.7461L28.6475 11.6561C28.6475 11.223 28.7231 10.8591 28.8744 10.5643C29.0257 10.2696 29.2344 10.0465 29.5005 9.89522C29.7666 9.74391 30.0718 9.66826 30.4162 9.66826C30.6692 9.66826 30.8896 9.70739 31.0775 9.78565C31.2679 9.86391 31.4283 9.96956 31.5588 10.1026C31.6918 10.2357 31.7988 10.3883 31.8796 10.5604C31.9605 10.73 32.0192 10.9113 32.0557 11.1043C32.0923 11.2948 32.1105 11.4852 32.1105 11.6757V14H31.5314ZM28.4753 14V9.77391H28.9957V10.8148H29.0544V14H28.4753ZM34.8913 14.1174C34.4791 14.1174 34.1217 14.0261 33.8191 13.8435C33.5191 13.6609 33.2856 13.4039 33.1187 13.0726C32.9517 12.7413 32.8682 12.3526 32.8682 11.9065C32.8682 11.4448 32.9504 11.0457 33.1148 10.7091C33.2791 10.3726 33.51 10.113 33.8074 9.93043C34.1074 9.74783 34.4608 9.65652 34.8678 9.65652C35.2852 9.65652 35.6413 9.75304 35.9361 9.94609C36.2308 10.1365 36.4539 10.4104 36.6052 10.7678C36.7565 11.1252 36.8256 11.5517 36.8126 12.0474H36.2256V11.8439C36.2152 11.2961 36.0965 10.8826 35.8695 10.6035C35.6452 10.3243 35.3165 10.1848 34.8835 10.1848C34.4295 10.1848 34.0813 10.3322 33.8387 10.627C33.5987 10.9217 33.4787 11.3417 33.4787 11.887C33.4787 12.4191 33.5987 12.8326 33.8387 13.1274C34.0813 13.4196 34.4243 13.5657 34.8678 13.5657C35.1704 13.5657 35.4339 13.4965 35.6582 13.3583C35.8852 13.2174 36.0639 13.0152 36.1943 12.7517L36.7304 12.9591C36.5635 13.327 36.3169 13.6126 35.9908 13.8161C35.6674 14.017 35.3008 14.1174 34.8913 14.1174ZM33.2752 12.0474V11.5661H36.5035V12.0474H33.2752Z" fill="white"/>
</svg>
