<svg width="20" height="20" viewBox="0 0 20 20" fill="none" xmlns="http://www.w3.org/2000/svg">
<g id="ph:eye-light">
<path id="Vector" d="M19.178 9.81016C19.1514 9.74922 18.5014 8.30781 17.0499 6.85625C15.703 5.51094 13.3889 3.90625 9.99989 3.90625C6.61082 3.90625 4.29676 5.51094 2.94989 6.85625C1.49832 8.30781 0.848323 9.74687 0.821761 9.81016C0.795052 9.87016 0.78125 9.9351 0.78125 10.0008C0.78125 10.0665 0.795052 10.1314 0.821761 10.1914C0.848323 10.2516 1.49832 11.693 2.94989 13.1445C4.29676 14.4898 6.61082 16.0938 9.99989 16.0938C13.3889 16.0938 15.703 14.4898 17.0499 13.1445C18.5014 11.693 19.1514 10.2539 19.178 10.1914C19.2047 10.1314 19.2185 10.0665 19.2185 10.0008C19.2185 9.9351 19.2047 9.87016 19.178 9.81016ZM9.99989 15.1562C7.54832 15.1562 5.4077 14.2641 3.6366 12.5055C2.89416 11.7676 2.2659 10.9232 1.77254 10C2.26576 9.07697 2.89404 8.23277 3.6366 7.49531C5.4077 5.73594 7.54832 4.84375 9.99989 4.84375C12.4514 4.84375 14.5921 5.73594 16.3632 7.49531C17.1057 8.23277 17.734 9.07697 18.2272 10C17.7296 10.9539 15.2343 15.1562 9.99989 15.1562ZM9.99989 6.40625C9.28911 6.40625 8.5943 6.61702 8.00331 7.01191C7.41232 7.40679 6.9517 7.96806 6.67969 8.62473C6.40769 9.2814 6.33652 10.004 6.47519 10.7011C6.61385 11.3982 6.95613 12.0386 7.45872 12.5412C7.96132 13.0438 8.60166 13.386 9.29878 13.5247C9.9959 13.6634 10.7185 13.5922 11.3752 13.3202C12.0318 13.0482 12.5931 12.5876 12.988 11.9966C13.3829 11.4056 13.5936 10.7108 13.5936 10C13.5924 9.04726 13.2134 8.1339 12.5397 7.46021C11.866 6.78651 10.9526 6.40749 9.99989 6.40625ZM9.99989 12.6562C9.47453 12.6562 8.96097 12.5005 8.52415 12.2086C8.08733 11.9167 7.74688 11.5019 7.54583 11.0165C7.34479 10.5311 7.29218 9.99705 7.39468 9.48179C7.49717 8.96653 7.75015 8.49323 8.12163 8.12175C8.49312 7.75026 8.96642 7.49728 9.48168 7.39479C9.99694 7.2923 10.531 7.3449 11.0164 7.54595C11.5018 7.74699 11.9166 8.08745 12.2085 8.52427C12.5003 8.96108 12.6561 9.47464 12.6561 10C12.6561 10.7045 12.3763 11.3801 11.8781 11.8783C11.38 12.3764 10.7044 12.6562 9.99989 12.6562Z" fill="#444444"/>
</g>
</svg>
