<svg width="30" height="30" viewBox="0 0 30 30" fill="none" xmlns="http://www.w3.org/2000/svg">
<path d="M19.0906 28.636H10.9087V27.2724H9.5451V25.9087H8.18146V24.5451H6.81783V23.1815H5.45419V21.8178H4.09055V20.4542H2.72692V19.0906H1.36328V10.9087H2.72692V9.5451H4.09055V8.18146H5.45419V6.81783H6.81783V5.45419H8.18146V4.09055H9.5451V2.72692H10.9087V1.36328H19.0906V2.72692H20.4542V4.09055H21.8178V5.45419H23.1815V6.81783H24.5451V8.18146H25.9087V9.5451H27.2724V10.9087H28.636V19.0906H27.2724V20.4542H25.9087V21.8178H24.5451V23.1815H23.1815V24.5451H21.8178V25.9087H20.4542V27.2724H19.0906V28.636ZM17.7269 25.9087V24.5451H19.0906V23.1815H20.4542V21.8178H21.8178V20.4542H23.1815V19.0906H24.5451V17.7269H25.9087V12.2724H24.5451V10.9087H23.1815V9.5451H21.8178V8.18146H20.4542V6.81783H19.0906V5.45419H17.7269V4.09055H12.2724V5.45419H10.9087V6.81783H9.5451V8.18146H8.18146V9.5451H6.81783V10.9087H5.45419V12.2724H4.09055V17.7269H5.45419V19.0906H6.81783V20.4542H8.18146V21.8178H9.5451V23.1815H10.9087V24.5451H12.2724V25.9087H17.7269Z" fill="#E5E4E2"/>
</svg>
