<svg width="30" height="30" viewBox="0 0 30 30" fill="none" xmlns="http://www.w3.org/2000/svg">
<g id="Group">
<path id="Vector" fill-rule="evenodd" clip-rule="evenodd" d="M20.3346 11.0003C20.3346 12.4148 19.7727 13.7714 18.7725 14.7716C17.7723 15.7718 16.4158 16.3337 15.0013 16.3337C13.5868 16.3337 12.2303 15.7718 11.2301 14.7716C10.2299 13.7714 9.66797 12.4148 9.66797 11.0003C9.66797 9.58584 10.2299 8.22928 11.2301 7.22909C12.2303 6.2289 13.5868 5.66699 15.0013 5.66699C16.4158 5.66699 17.7723 6.2289 18.7725 7.22909C19.7727 8.22928 20.3346 9.58584 20.3346 11.0003ZM17.668 11.0003C17.668 11.7076 17.387 12.3858 16.8869 12.8859C16.3868 13.386 15.7085 13.667 15.0013 13.667C14.2941 13.667 13.6158 13.386 13.1157 12.8859C12.6156 12.3858 12.3346 11.7076 12.3346 11.0003C12.3346 10.2931 12.6156 9.6148 13.1157 9.11471C13.6158 8.61461 14.2941 8.33366 15.0013 8.33366C15.7085 8.33366 16.3868 8.61461 16.8869 9.11471C17.387 9.6148 17.668 10.2931 17.668 11.0003Z" fill="#FAFAFA"/>
<path id="Vector_2" fill-rule="evenodd" clip-rule="evenodd" d="M15.0007 0.333496C6.90065 0.333496 0.333984 6.90016 0.333984 15.0002C0.333984 23.1002 6.90065 29.6668 15.0007 29.6668C23.1006 29.6668 29.6673 23.1002 29.6673 15.0002C29.6673 6.90016 23.1006 0.333496 15.0007 0.333496ZM3.00065 15.0002C3.00065 17.7868 3.95132 20.3522 5.54465 22.3895C6.66363 20.92 8.10718 19.7292 9.76256 18.9099C11.4179 18.0907 13.2403 17.6652 15.0873 17.6668C16.9104 17.6651 18.7099 18.0795 20.3486 18.8785C21.9872 19.6775 23.4219 20.8401 24.5433 22.2775C25.6986 20.7623 26.4764 18.9938 26.8125 17.1183C27.1486 15.2428 27.0332 13.3142 26.476 11.4921C25.9187 9.67007 24.9356 8.00689 23.608 6.64021C22.2803 5.27353 20.6463 4.24264 18.8412 3.63284C17.036 3.02304 15.1116 2.85186 13.2271 3.13346C11.3427 3.41506 9.55237 4.14135 8.00434 5.25223C6.45631 6.36312 5.19507 7.82666 4.32496 9.52176C3.45485 11.2169 3.00089 13.0948 3.00065 15.0002ZM15.0007 27.0002C12.2459 27.0043 9.57434 26.0566 7.43798 24.3175C8.29789 23.0865 9.44243 22.0814 10.7742 21.3877C12.106 20.6941 13.5857 20.3324 15.0873 20.3335C16.5702 20.3323 18.032 20.6849 19.3512 21.3621C20.6705 22.0392 21.8091 23.0213 22.6726 24.2268C20.5197 26.0224 17.8041 27.0041 15.0007 27.0002Z" fill="#FAFAFA"/>
</g>
</svg>
