<svg width="38" height="38" viewBox="0 0 38 38" fill="none" xmlns="http://www.w3.org/2000/svg">
<path fill-rule="evenodd" clip-rule="evenodd" d="M14.3872 9.06537C12.8367 8.56408 11.0477 8.57391 9.58563 9.32339C6.20928 11.0583 4.74718 15.5306 6.10607 20.2683C6.71549 22.3939 7.78934 24.458 10.0599 26.5393C12.3305 28.6232 15.4807 29.8518 16.9404 29.8518C17.0632 29.8538 17.1852 29.8315 17.2994 29.7862C17.4136 29.7409 17.5178 29.6735 17.6059 29.5879C17.694 29.5023 17.7643 29.4002 17.8129 29.2873C17.8615 29.1745 17.8873 29.0532 17.8889 28.9303C17.8889 28.4216 17.4564 28.0088 16.9404 28.0088C15.2719 28.0088 13.7803 27.0996 12.0135 25.7628C10.6619 24.7381 9.60529 23.4284 9.02291 22.2882C7.90483 20.1061 7.86797 17.0295 9.6741 16.2112C10.0934 16.6872 10.6102 17.0673 11.1893 17.326C11.7685 17.5846 12.3965 17.7156 13.0308 17.7102C15.9796 17.7102 17.7169 15.3389 17.6407 13.1912C17.5695 11.1393 16.2646 9.67724 14.3872 9.06537ZM29.1311 9.06537C27.5806 8.56408 25.7916 8.57391 24.3295 9.32339C20.9532 11.0583 19.4911 15.5306 20.85 20.2683C21.4594 22.3939 22.5332 24.458 24.8038 26.5393C27.0744 28.6232 30.2246 29.8518 31.6843 29.8518C31.8071 29.8538 31.9291 29.8315 32.0433 29.7862C32.1575 29.7409 32.2617 29.6735 32.3498 29.5879C32.4379 29.5023 32.5083 29.4002 32.5568 29.2873C32.6054 29.1745 32.6312 29.0532 32.6328 28.9303C32.6328 28.4216 32.2003 28.0088 31.6843 28.0088C30.0158 28.0088 28.5242 27.0996 26.7574 25.7628C25.4058 24.7381 24.3492 23.4284 23.7668 22.2882C22.6487 20.1061 22.6119 17.0295 24.418 16.2112C25.2854 17.1598 26.4183 17.7102 27.7747 17.7102C30.7235 17.7102 32.4608 15.3389 32.3846 13.1912C32.3134 11.1393 31.0085 9.67724 29.1311 9.06537Z" fill="#2596BE"/>
</svg>
