<svg width="140" height="140" viewBox="0 0 140 140" fill="none" xmlns="http://www.w3.org/2000/svg">
<path fill-rule="evenodd" clip-rule="evenodd" d="M99.0762 108.351C89.8108 115.381 78.313 118.818 66.7095 118.026C55.106 117.234 44.182 112.266 35.958 104.042C27.734 95.818 22.7665 84.894 21.9743 73.2905C21.1821 61.687 24.6188 50.1892 31.6488 40.9238L99.0762 108.351ZM108.351 99.0762L40.9238 31.6488C50.1892 24.6188 61.687 21.1821 73.2905 21.9743C84.894 22.7665 95.818 27.734 104.042 35.958C112.266 44.182 117.234 55.106 118.026 66.7095C118.818 78.313 115.381 89.8108 108.351 99.0762ZM131.25 70C131.25 86.2445 124.797 101.824 113.31 113.31C101.824 124.797 86.2445 131.25 70 131.25C53.7555 131.25 38.1763 124.797 26.6897 113.31C15.2031 101.824 8.75 86.2445 8.75 70C8.75 53.7555 15.2031 38.1763 26.6897 26.6897C38.1763 15.2031 53.7555 8.75 70 8.75C86.2445 8.75 101.824 15.2031 113.31 26.6897C124.797 38.1763 131.25 53.7555 131.25 70Z" fill="#A9A5A5"/>
</svg>
