<svg width="25" height="24" viewBox="0 0 25 24" fill="none" xmlns="http://www.w3.org/2000/svg">
<g id="ic:round-search">
<path id="Vector" d="M15.9995 14H15.2095L14.9295 13.73C15.5544 13.0039 16.0112 12.1487 16.267 11.2256C16.5229 10.3024 16.5715 9.33413 16.4095 8.38998C15.9395 5.60998 13.6195 3.38997 10.8195 3.04997C9.8351 2.92544 8.83527 3.02775 7.89651 3.34906C6.95775 3.67038 6.10493 4.20219 5.40332 4.90381C4.70171 5.60542 4.16989 6.45824 3.84858 7.397C3.52726 8.33576 3.42495 9.33559 3.54949 10.32C3.88949 13.12 6.10949 15.44 8.88949 15.91C9.83364 16.072 10.8019 16.0234 11.7251 15.7675C12.6483 15.5117 13.5035 15.0549 14.2295 14.43L14.4995 14.71V15.5L18.7495 19.75C19.1595 20.16 19.8295 20.16 20.2395 19.75C20.6495 19.34 20.6495 18.67 20.2395 18.26L15.9995 14ZM9.99949 14C7.50949 14 5.49949 11.99 5.49949 9.49997C5.49949 7.00997 7.50949 4.99997 9.99949 4.99997C12.4895 4.99997 14.4995 7.00997 14.4995 9.49997C14.4995 11.99 12.4895 14 9.99949 14Z" fill="#FAFAFA"/>
</g>
</svg>
