<svg width="30" height="30" viewBox="0 0 30 30" fill="none" xmlns="http://www.w3.org/2000/svg">
<path d="M12.5622 19.4062C13.5484 18.7309 14.2261 17.6914 14.446 16.5165C14.666 15.3415 14.4102 14.1273 13.735 13.1409L10.0197 15.6834C9.52598 16.0206 8.91859 16.1478 8.3311 16.0372C7.74361 15.9265 7.22415 15.587 6.887 15.0933C6.54984 14.5996 6.42261 13.9922 6.53328 13.4047C6.64396 12.8172 6.98348 12.2978 7.47715 11.9606L10.8718 9.63656L13.0506 8.14313C13.539 7.80842 13.9568 7.38075 14.2799 6.88455C14.603 6.38836 14.8252 5.83336 14.9338 5.25127C15.0423 4.66918 15.0351 4.0714 14.9126 3.49209C14.7901 2.91278 14.5546 2.36328 14.2197 1.875L10.4997 4.425L4.92997 8.235L4.92247 8.2425C3.44206 9.25559 2.42474 10.8153 2.09429 12.5784C1.76385 14.3416 2.14735 16.1638 3.16043 17.6442C4.17352 19.1246 5.7332 20.142 7.49637 20.4724C9.25953 20.8028 11.0817 20.4193 12.5622 19.4062ZM17.4465 10.5938C17.4356 10.5991 17.4258 10.6064 17.4175 10.6153L17.4465 10.5938ZM17.4465 10.5938C16.4602 11.2691 15.7826 12.3086 15.5627 13.4835C15.3427 14.6585 15.5985 15.8727 16.2737 16.8591L19.989 14.3166C20.4829 13.991 21.0849 13.8725 21.6653 13.9863C22.2458 14.1002 22.7583 14.4375 23.0926 14.9255C23.4268 15.4135 23.5561 16.0132 23.4526 16.5956C23.3491 17.178 23.021 17.6965 22.539 18.0394L19.1443 20.3634L16.959 21.8597C15.9726 22.5349 15.2948 23.5743 15.0746 24.7493C14.8545 25.9242 15.1101 27.1385 15.7853 28.125L19.4997 25.5825L25.0731 21.765C26.5545 20.7537 27.5735 19.1952 27.9058 17.4326C28.2382 15.67 27.8568 13.8475 26.8454 12.3661C25.8341 10.8847 24.2757 9.86572 22.513 9.53334C20.7504 9.20097 18.9279 9.58241 17.4465 10.5938Z" fill="#A9A5A5"/>
</svg>
