<svg width="24" height="25" viewBox="0 0 24 25" fill="none" xmlns="http://www.w3.org/2000/svg">
<path d="M19 7.5H18V6.5C18 5.70435 17.6839 4.94129 17.1213 4.37868C16.5587 3.81607 15.7956 3.5 15 3.5H5C4.20435 3.5 3.44129 3.81607 2.87868 4.37868C2.31607 4.94129 2 5.70435 2 6.5V18.5C2 19.2956 2.31607 20.0587 2.87868 20.6213C3.44129 21.1839 4.20435 21.5 5 21.5H19C19.7956 21.5 20.5587 21.1839 21.1213 20.6213C21.6839 20.0587 22 19.2956 22 18.5V10.5C22 9.70435 21.6839 8.94129 21.1213 8.37868C20.5587 7.81607 19.7956 7.5 19 7.5ZM5 5.5H15C15.2652 5.5 15.5196 5.60536 15.7071 5.79289C15.8946 5.98043 16 6.23478 16 6.5V7.5H5C4.73478 7.5 4.48043 7.39464 4.29289 7.20711C4.10536 7.01957 4 6.76522 4 6.5C4 6.23478 4.10536 5.98043 4.29289 5.79289C4.48043 5.60536 4.73478 5.5 5 5.5ZM20 15.5H19C18.7348 15.5 18.4804 15.3946 18.2929 15.2071C18.1054 15.0196 18 14.7652 18 14.5C18 14.2348 18.1054 13.9804 18.2929 13.7929C18.4804 13.6054 18.7348 13.5 19 13.5H20V15.5ZM20 11.5H19C18.2044 11.5 17.4413 11.8161 16.8787 12.3787C16.3161 12.9413 16 13.7044 16 14.5C16 15.2956 16.3161 16.0587 16.8787 16.6213C17.4413 17.1839 18.2044 17.5 19 17.5H20V18.5C20 18.7652 19.8946 19.0196 19.7071 19.2071C19.5196 19.3946 19.2652 19.5 19 19.5H5C4.73478 19.5 4.48043 19.3946 4.29289 19.2071C4.10536 19.0196 4 18.7652 4 18.5V9.33C4.32127 9.44302 4.65943 9.50051 5 9.5H19C19.2652 9.5 19.5196 9.60536 19.7071 9.79289C19.8946 9.98043 20 10.2348 20 10.5V11.5Z" fill="#EEF3F4"/>
</svg>
