<svg width="24" height="34" viewBox="0 0 24 34" fill="none" xmlns="http://www.w3.org/2000/svg">
<path opacity="0.3" d="M18.4902 9.88003L18.5702 9.03003L18.7502 7.08003L16.8502 6.65003L16.0102 6.46003L15.5702 5.72003L14.5802 4.04003L12.7902 4.80003L12.0002 5.14003L11.2102 4.80003L9.42016 4.03003L8.43016 5.71003L7.99016 6.45003L7.15016 6.64003L5.25016 7.07003L5.43016 9.01003L5.51016 9.86003L4.95016 10.51L3.66016 11.99L4.95016 13.46L5.51016 14.11L5.43016 14.96L5.25016 16.92L7.15016 17.35L7.99016 17.54L8.43016 18.28L9.42016 19.95L11.2002 19.18L12.0002 18.85L12.7902 19.19L14.5702 19.96L15.5602 18.28L16.0002 17.54L16.8402 17.35L18.7402 16.92L18.5602 14.97L18.4802 14.12L19.0402 13.47L20.3302 12L19.0402 10.53L18.4902 9.88003ZM10.0902 16.72L6.29016 12.91L7.77016 11.43L10.0902 13.76L15.9402 7.89003L17.4202 9.37003L10.0902 16.72Z" fill="#25BB0D"/>
<path d="M23 11.99L20.56 9.2L20.9 5.51L17.29 4.69L15.4 1.5L12 2.96L8.6 1.5L6.71 4.69L3.1 5.5L3.44 9.2L1 11.99L3.44 14.78L3.1 18.48L6.71 19.3L8.6 22.5L12 21.03L15.4 22.49L17.29 19.3L20.9 18.48L20.56 14.79L23 11.99ZM19.05 13.47L18.49 14.12L18.57 14.97L18.75 16.92L16.85 17.35L16.01 17.54L15.57 18.28L14.58 19.96L12.8 19.19L12 18.85L11.21 19.19L9.43 19.96L8.44 18.29L8 17.55L7.16 17.36L5.26 16.93L5.44 14.97L5.52 14.12L4.96 13.47L3.67 12L4.96 10.52L5.52 9.87L5.43 9.01L5.25 7.07L7.15 6.64L7.99 6.45L8.43 5.71L9.42 4.03L11.2 4.8L12 5.14L12.79 4.8L14.57 4.03L15.56 5.71L16 6.45L16.84 6.64L18.74 7.07L18.56 9.02L18.48 9.87L19.04 10.52L20.33 11.99L19.05 13.47Z" fill="#2596BE" fill-opacity="0.3"/>
<path d="M10.0891 13.7501L7.76906 11.4201L6.28906 12.9101L10.0891 16.7201L17.4291 9.36012L15.9491 7.87012L10.0891 13.7501Z" fill="#2596BE"/>
<path d="M11.5462 28.695L14.046 21L15.4438 25.3322L15.5913 25.7558L18.0915 33.4508L11.5462 22.1027L5 33.4508L8 25.3322L9.98698 21L11.5462 28.695Z" fill="#D9D9D9"/>
</svg>
