<svg width="32" height="32" viewBox="0 0 32 32" fill="none" xmlns="http://www.w3.org/2000/svg">
<g id="fluent:video-28-regular">
<path id="Vector" d="M5.99944 6.28564C5.01435 6.28564 4.06961 6.67697 3.37304 7.37353C2.67648 8.0701 2.28516 9.01484 2.28516 9.99993V21.9999C2.28516 22.985 2.67648 23.9298 3.37304 24.6263C4.06961 25.3229 5.01435 25.7142 5.99944 25.7142H18.0017C18.9868 25.7142 19.9316 25.3229 20.6281 24.6263C21.3247 23.9298 21.716 22.985 21.716 21.9999V20.1942L26.9057 23.7508C27.1202 23.8979 27.3708 23.9837 27.6304 23.9988C27.8901 24.014 28.1489 23.958 28.3791 23.8368C28.6092 23.7157 28.8019 23.534 28.9364 23.3114C29.0709 23.0888 29.1421 22.8337 29.1423 22.5736V9.42507C29.142 9.16517 29.0708 8.91028 28.9363 8.68786C28.8019 8.46543 28.6093 8.28389 28.3793 8.1628C28.1494 8.0417 27.8907 7.98564 27.6313 8.00064C27.3718 8.01564 27.1213 8.10114 26.9069 8.24793L21.716 11.8022V9.99993C21.716 9.01484 21.3247 8.0701 20.6281 7.37353C19.9316 6.67697 18.9868 6.28564 18.0017 6.28564H5.99944ZM21.716 18.1165V13.8799L27.428 9.96907V22.0308L21.716 18.1165ZM20.0017 9.99993V21.9999C20.0017 22.5304 19.791 23.0391 19.4159 23.4141C19.0409 23.7892 18.5322 23.9999 18.0017 23.9999H5.99944C5.46901 23.9999 4.9603 23.7892 4.58523 23.4141C4.21016 23.0391 3.99944 22.5304 3.99944 21.9999V9.99993C3.99944 8.89593 4.89544 7.99993 5.99944 7.99993H18.0017C19.1069 7.99993 20.0017 8.89593 20.0017 9.99993Z" fill="#444444"/>
</g>
</svg>
