<svg width="75" height="75" viewBox="0 0 75 75" fill="none" xmlns="http://www.w3.org/2000/svg">
<path d="M1.62373 5.27548V5.25127L1.62247 5.2271C1.58022 4.41758 1.8041 3.61648 2.25992 2.94615C2.69026 2.3133 3.305 1.82985 4.01897 1.56042C4.16089 1.55264 4.30314 1.55301 4.44503 1.56154L4.51472 1.56573L4.58426 1.55944C4.80654 1.53935 5.03018 1.53935 5.25247 1.55944L5.29415 1.56321H5.336H70.3021C71.2866 1.56321 72.2309 1.95432 72.927 2.65051C73.6232 3.34669 74.0143 4.29092 74.0143 5.27548V51.6798C74.0143 52.6644 73.6232 53.6086 72.927 54.3048C72.2309 55.001 71.2866 55.3921 70.3021 55.3921H47.0999H46.1717V56.3202V65.6011V66.5293H47.0999H56.3808C60.6591 66.5293 64.216 69.794 64.6818 73.9538H10.9563C11.4221 69.794 14.979 66.5293 19.2573 66.5293H28.5382H29.4663V65.6011V56.3202V55.3921H28.5382H5.336C4.35145 55.3921 3.40722 55.001 2.71103 54.3048C2.01484 53.6086 1.62373 52.6644 1.62373 51.6798V5.27548ZM9.97643 8.98774H9.04827V9.91591V47.0394V47.9675H9.97643H65.6616H66.5898V47.0394V9.91591V8.98774H65.6616H9.97643Z" stroke="#2596BE" stroke-opacity="0.3" stroke-width="1.85633"/>
<path d="M37.3396 24.679C40.6171 24.6826 43.7452 25.4112 46.4274 26.6193L44.9981 28.4826C42.7121 27.4231 40.0506 26.8371 37.3155 26.8371C34.5729 26.8371 32.0737 27.4262 29.8268 28.4809L28.3947 26.6141C31.0802 25.3813 34.0592 24.6825 37.3396 24.679ZM37.3643 12.6357C43.5392 12.6357 49.4059 13.9802 54.3778 16.3963L52.9732 18.162C48.4235 15.9047 43.0589 14.7537 37.3643 14.7537C31.7079 14.7537 26.4371 15.9443 21.9046 18.1655L20.5006 16.4006C25.4621 14.011 31.1998 12.6357 37.3643 12.6357ZM33.4119 39.8086C33.4119 38.2747 35.0147 36.7223 37.3643 36.7223C39.7139 36.7223 41.3167 38.2747 41.3167 39.8086C41.3167 41.3426 39.7139 42.8949 37.3643 42.8949C35.0147 42.8949 33.4119 41.3426 33.4119 39.8086Z" stroke="#2596BE" stroke-opacity="0.3" stroke-width="1.85633"/>
</svg>
