<svg width="75" height="64" viewBox="0 0 75 64" fill="none" xmlns="http://www.w3.org/2000/svg">
<path d="M14.8902 5.95511L14.295 5.45769L13.6998 5.95511L7.00866 11.5471L6.15646 12.2593L7.00866 12.9715L15.4497 20.0258L7.00866 27.0802L6.15646 27.7924L7.00866 28.5046L13.6998 34.0966L14.295 34.594L14.8902 34.0966L30.8746 20.738L31.7268 20.0258L30.8746 19.3136L14.8902 5.95511ZM37.5282 22.981H36.6V23.9091V31.6757V32.6039H37.5282H65.408H66.3362V31.6757V23.9091V22.981H65.408H37.5282ZM1.28327 1.53754H73.6802V61.7362H1.28327V1.53754ZM1.12125 1.54374C1.12123 1.54371 1.12192 1.54348 1.12339 1.54311C1.12201 1.54358 1.12127 1.54377 1.12125 1.54374Z" stroke="#2596BE" stroke-opacity="0.3" stroke-width="1.85633"/>
<path d="M33.7375 56.8679H60.8361" stroke="#2596BE" stroke-opacity="0.3" stroke-width="1.85633" stroke-linecap="round" stroke-linejoin="round"/>
<path d="M45.5997 38.9165H59.149C59.5982 38.9165 60.029 39.062 60.3466 39.3209C60.6642 39.5799 60.8426 39.9311 60.8426 40.2973V51.3441M55.7617 52.7249H38.8251C38.3759 52.7249 37.9451 52.5794 37.6275 52.3205C37.3098 52.0615 37.1314 51.7103 37.1314 51.3441V40.2973C37.1314 39.9311 37.3098 39.5799 37.6275 39.3209C37.9451 39.062 38.3759 38.9165 38.8251 38.9165" stroke="#2596BE" stroke-opacity="0.3" stroke-width="1.85633" stroke-linecap="round" stroke-linejoin="round"/>
<path d="M33.7375 34.7747L64.2234 59.6298" stroke="#2596BE" stroke-opacity="0.3" stroke-width="1.85633" stroke-linecap="round" stroke-linejoin="round"/>
</svg>
