<svg width="248" height="248" viewBox="0 0 248 248" fill="none" xmlns="http://www.w3.org/2000/svg">
<rect x="0.5" y="0.5" width="247" height="247" fill="white" stroke="#2596BE"/>
<path d="M46 55V206H200.872V55H46ZM52.453 61.453H194.419V199.547H52.453V61.453Z" fill="black"/>
<path d="M158.476 118.433C157.508 117.981 156.282 117.787 154.733 117.787C146.602 117.787 141.182 124.047 141.182 134.436C141.182 146.31 146.731 151.085 153.959 151.085C155.507 151.085 157.185 150.891 158.411 150.375V118.433H158.476ZM129.566 134.952C129.566 119.917 139.246 108.173 155.12 108.173C156.475 108.173 157.185 108.173 158.476 108.302V91.5238C158.476 91.1366 158.799 90.8785 159.121 90.8785H169.51C170.027 90.8785 170.156 91.0721 170.156 91.3947V150.375C170.156 152.117 170.156 154.311 170.478 156.699C170.478 157.151 170.478 157.215 170.091 157.409C164.671 159.99 158.992 161.152 153.572 161.152C139.569 161.152 129.566 152.505 129.566 134.952ZM107.562 124.499L125.63 159.538C125.953 160.055 125.759 160.571 125.243 160.571H114.015C113.305 160.571 112.982 160.377 112.66 159.732C108.53 151.214 104.335 142.373 100.012 133.21H99.8827C96.0109 141.857 91.7519 151.278 87.622 159.796C87.2994 160.313 86.9767 160.506 86.4605 160.506H75.7485C75.1032 160.506 75.0387 159.99 75.3613 159.603L93.0425 125.596L75.9421 91.7819C75.5549 91.2657 75.9421 90.814 76.3938 90.814H87.493C88.1383 90.814 88.4609 90.943 88.6545 91.5238C92.7199 100.106 96.8498 108.56 100.722 117.207H100.851C104.593 108.689 108.723 100.106 112.66 91.6529C112.982 91.1366 113.176 90.814 113.821 90.814H124.21C124.727 90.814 124.92 91.2011 124.598 91.7819L107.562 124.499Z" fill="black"/>
</svg>
