<svg width="79" height="79" viewBox="0 0 79 79" fill="none" xmlns="http://www.w3.org/2000/svg">
<path d="M71.714 35.8702H70.7858V36.7984V40.5111H16.9522V16.8428H39.2282H40.1564V15.9147V11.2738V10.3457H39.2282H13.7036C12.8421 10.3457 12.0158 10.6879 11.4065 11.2972C10.7973 11.9064 10.4551 12.7327 10.4551 13.5943V40.5111H7.67056V8.95343C7.67056 8.58418 7.81724 8.23006 8.07834 7.96896C8.33943 7.70786 8.69356 7.56118 9.06281 7.56118H43.869H44.7972V6.63302V1.99219V1.06402H43.869H9.06281C6.9704 1.06402 4.9637 1.89523 3.48415 3.37478C2.0046 4.85433 1.1734 6.86103 1.1734 8.95343V55.3617C1.1734 56.2233 1.51566 57.0496 2.12488 57.6588C2.73411 58.268 3.5604 58.6103 4.42198 58.6103H23.8884L22.5045 68.356H20.6649C19.8033 68.356 18.977 68.6983 18.3678 69.3075C17.9828 69.6925 17.7045 70.164 17.5517 70.6764H13.7036H12.7755V71.6046V76.2454V77.1736H13.7036H64.7528H65.6809V76.2454V71.6046V70.6764H64.7528H60.9047C60.7519 70.164 60.4735 69.6925 60.0886 69.3075C59.4794 68.6983 58.6531 68.356 57.7915 68.356H55.9751L54.5912 58.6103H74.0344C74.896 58.6103 75.7223 58.268 76.3315 57.6588C76.9407 57.0496 77.283 56.2233 77.283 55.3617V36.7984V35.8702H76.3548H71.714ZM48.0058 58.6103L49.3897 68.356H29.0435L30.4274 58.6103H48.0058ZM70.7858 52.1131H7.67056V47.0082H70.7858V52.1131Z" stroke="#2596BE" stroke-opacity="0.3" stroke-width="1.85633"/>
<path d="M52.8073 23.5321L53.3209 23.0185L52.9458 22.3966C52.5527 21.7446 52.2506 21.042 52.0478 20.3082L51.8597 19.6272H51.1532H47.1157V16.8427H51.1764H51.8887L52.073 16.1546C52.2692 15.4219 52.5643 14.7193 52.9501 14.0663L53.3147 13.4492L52.8098 12.9404L50.4909 10.6034L52.4809 8.61335L54.818 10.9142L55.3267 11.415L55.9413 11.0519C56.5943 10.666 57.2969 10.371 58.0296 10.1748L58.7177 9.99052V9.27819V5.24067H61.5022V9.30139V10.0137L62.1903 10.198C62.923 10.3942 63.6256 10.6893 64.2787 11.0751L64.8958 11.4397L65.4046 10.9348L67.737 8.62048L69.7311 10.6427L67.4359 12.9378L66.927 13.4467L67.2931 14.0663C67.6789 14.7193 67.974 15.4219 68.1702 16.1546L68.3545 16.8427H69.0668H73.1043V19.6272H69.0436H68.3312L68.147 20.3153C67.9508 21.048 67.6557 21.7506 67.2699 22.4037L66.9112 23.0108L67.4 23.5191L69.6696 25.8796L67.6977 27.8515L65.4071 25.5609L64.8983 25.052L64.2787 25.4181C63.6256 25.8039 62.923 26.099 62.1903 26.2952L61.5022 26.4795V27.1918V31.2293H58.7177V27.1686V26.4562L58.0296 26.272C57.2969 26.0758 56.5943 25.7807 55.9413 25.3949L55.3317 25.0348L54.8233 25.5274L52.4861 27.7922L50.5167 25.8227L52.8073 23.5321ZM63.204 13.6045C62.2881 12.9926 61.2114 12.666 60.11 12.666C58.633 12.666 57.2165 13.2527 56.1721 14.2971C55.1277 15.3415 54.541 16.758 54.541 18.235C54.541 19.3364 54.8676 20.4131 55.4795 21.329C56.0915 22.2448 56.9612 22.9586 57.9788 23.3801C58.9964 23.8016 60.1162 23.9119 61.1964 23.697C62.2767 23.4821 63.269 22.9517 64.0479 22.1729C64.8267 21.394 65.3571 20.4017 65.572 19.3214C65.7869 18.2412 65.6766 17.1214 65.2551 16.1038C64.8336 15.0862 64.1198 14.2165 63.204 13.6045Z" stroke="#2596BE" stroke-opacity="0.3" stroke-width="1.85633"/>
</svg>
