<svg width="8" height="7" viewBox="0 0 8 7" fill="none" xmlns="http://www.w3.org/2000/svg">
<path d="M6 1.5H2C1.86739 1.5 1.74021 1.55268 1.64645 1.64645C1.55268 1.74021 1.5 1.86739 1.5 2V4.162C1.50002 4.26185 1.52994 4.35941 1.58591 4.44211C1.64187 4.52481 1.72131 4.58886 1.814 4.626L2.514 4.906C3.4679 5.28769 4.5321 5.28769 5.486 4.906L6.186 4.626C6.27869 4.58886 6.35813 4.52481 6.41409 4.44211C6.47006 4.35941 6.49998 4.26185 6.5 4.162V2C6.5 1.86739 6.44732 1.74021 6.35355 1.64645C6.25979 1.55268 6.13261 1.5 6 1.5Z" stroke="#2596BE" stroke-width="2" stroke-linecap="round"/>
</svg>
