<svg xmlns="http://www.w3.org/2000/svg" viewBox="0 0 130 130"><defs><style>.cls-1{fill:#d7eef7;}.cls-2{fill:#0096dc;}.cls-3{fill:#fff;}.cls-4{fill:#00c3ff;}.cls-5{fill:#fefefe;}</style></defs><title>company_hr_icon</title><g id="Layer_2" data-name="Layer 2"><g id="Layer_1-2" data-name="Layer 1"><rect class="cls-1" width="130" height="130" rx="27.74"/><path class="cls-2" d="M61.86,83.43H44.5c-3.59,0-5.64-2.41-4.93-5.93a22.54,22.54,0,0,1,12-16c.63-.34.87-.45.32-1.19a11.78,11.78,0,0,1-1.07-13,11.75,11.75,0,0,1,11-7A11.74,11.74,0,0,1,73,47.21a11.82,11.82,0,0,1-1.09,13.25c-.5.66-.18.74.3,1A22.76,22.76,0,0,1,84.38,77.77a4.6,4.6,0,0,1-4.65,5.65C73.77,83.45,67.82,83.43,61.86,83.43Z"/><path class="cls-2" d="M62,80.09H44.6c-1.65,0-2.07-.49-1.71-2.09A19.3,19.3,0,0,1,54.61,63.78a1.27,1.27,0,0,1,1.25.07,12.24,12.24,0,0,0,12.16,0,1.16,1.16,0,0,1,1.15-.12,19.51,19.51,0,0,1,12,14.76c.21,1-.37,1.58-1.62,1.58Z"/><path class="cls-3" d="M62,62.09a9.21,9.21,0,1,1,9.15-9.25A9,9,0,0,1,62,62.09Z"/><path class="cls-4" d="M67.2,15.73A7.85,7.85,0,0,0,54.88,20a1.11,1.11,0,0,1-1,.94c-1.42.25-2.82.6-4.21,1a44.17,44.17,0,0,0-32.1,42.68c0,1.24-.06,2.47,0,3.7a1.67,1.67,0,1,0,3.33-.07,9,9,0,0,0,0-1.16A40.86,40.86,0,0,1,53.75,24.43c.9-.17,1.24,0,1.6.84a7.66,7.66,0,0,0,7.74,4.57A7.87,7.87,0,0,0,67.2,15.73ZM62.43,26.49a4.49,4.49,0,0,1,0-9,4.49,4.49,0,0,1,0,9Z"/><path class="cls-4" d="M90.53,105.82a1.68,1.68,0,0,0-2.33-.44,6.1,6.1,0,0,0-.54.34A41,41,0,0,1,34,98a1.22,1.22,0,0,1-.15-1.82,7.71,7.71,0,0,0-1.19-10,7.84,7.84,0,0,0-12.33,9.28,7.74,7.74,0,0,0,9.28,3.92,1.22,1.22,0,0,1,1.57.48c8.93,10.53,20.39,15.69,32.67,16,8.14-.07,14.51-1.48,20.54-4.38A41.85,41.85,0,0,0,90,108.22,1.69,1.69,0,0,0,90.53,105.82ZM27.3,96.29a4.53,4.53,0,0,1-4.47-4.52,4.49,4.49,0,1,1,4.47,4.52Z"/><path class="cls-4" d="M110.07,59A8.32,8.32,0,0,1,109,63.47a.4.4,0,0,0,0,.56l.08.07c1,1,2,2,3,3a1.54,1.54,0,0,1-1.21,2.64,1.61,1.61,0,0,1-1.06-.54l-2.93-2.92a.38.38,0,0,0-.54-.09h0a7.78,7.78,0,1,1-3.45-14.43C106.94,52.07,110.09,55.47,110.07,59Z"/><path class="cls-5" d="M102.26,54.82a4.69,4.69,0,1,1-4.71,4.68,4.71,4.71,0,0,1,4.71-4.68Z"/></g></g></svg>