<svg xmlns="http://www.w3.org/2000/svg" viewBox="0 0 392.4 345.22"><defs><style>.cls-1{fill:#0096dc;}.cls-2{fill:#f6d1b6;}</style></defs><title>customer-care_2</title><g id="Layer_2" data-name="Layer 2"><g id="Layer_1-2" data-name="Layer 1"><path class="cls-1" d="M0,120.66c1.31-.77,1-2.23,1.36-3.36a34.51,34.51,0,0,1,32.2-24.92c7-.16,14-.19,21.06,0,2.72.08,3.94-.86,5.05-3.29,16-34.89,41.25-61,76.6-76.09C181.76-6.44,226.64-4.09,270,20.1c17,9.48,31.27,22.33,43.32,37.64a146.18,146.18,0,0,1,19.2,32.09c.84,1.92,1.82,2.52,3.92,2.57,9.18.18,18.39-.88,27.52.61,15.39,2.51,27.78,16.17,28.14,31.77q.58,24.89,0,49.78c-.4,17.67-15.49,32.25-33.19,32.63q-11.1.24-22.21,0c-2.38,0-3.41.71-4.44,2.93-20,43.28-52.85,71.61-98.91,84.32-2.15.59-2.81,1.35-2.83,3.55,0,6.61.8,13.3-.75,19.83-3.25,13.75-11.79,22.9-25.42,26.25-12.93,3.17-24.44-.21-33.56-10.36a34.31,34.31,0,0,1-2.54-3c-14.45-17.87-4.42-46.6,18.41-53.08,7.15-2,14.46-1.14,21.67-2,41.88-4.88,74.61-24.83,95.92-61.11,24.34-41.44,25.32-84.45,1.82-126.63C286.84,53.34,256.91,32,217.82,25.25c-36.34-6.32-69.56,2.28-99.06,24.64a17.21,17.21,0,0,0-1.64,1.56,14.22,14.22,0,0,1-3.91,3.25A36.87,36.87,0,0,0,106.52,61a22,22,0,0,1-2.87,3c-16.57,17.43-26.92,38.07-31.59,61.58C67,151.18,70.59,176,79.37,200.28c2.5,6.92,2.34,7-4.91,7H36.94c-18.76,0-31-9.24-36.15-27.22-.15-.5-.21-1-.79-1.15Z"/><path class="cls-2" d="M296.59,125.54c-14.32-62.07-84.2-96.67-142.1-70.36C93.3,83,73.72,157.15,113.27,211.57a4.21,4.21,0,0,1,.58,4.83C110.17,224.34,104,229,95.38,230c-2.57.31-2.74,1.24-2.71,3.25.09,5.49.2,11,0,16.47-.12,2.78.53,3.59,3.47,3.57,17.62-.17,35.24-.08,52.86-.08,15.45,0,30.9,0,46.35,0a102.75,102.75,0,0,0,24.66-2.8C275.89,236.93,309.6,181.94,296.59,125.54Zm-138,35.86c-3.05-.11-6.12,0-9.18,0-2.8,0-5.62-.12-8.41,0-2,.11-2.92-.26-2.85-2.61q.27-8.79,0-17.59c-.08-2.47.79-2.94,3.05-2.88,5.73.16,11.48.14,17.22,0,2.08-.05,2.89.43,2.84,2.68-.15,6-.17,12,0,18C161.32,161.22,160.39,161.46,158.59,161.4Zm46.43-.09c-3.06-.11-6.12,0-9.18,0-2.81,0-5.62-.11-8.42,0-2,.11-2.91-.26-2.84-2.6.17-5.86.17-11.74,0-17.6-.08-2.47.79-2.94,3.05-2.88,5.73.17,11.48.14,17.21,0,2.08-.05,2.9.43,2.85,2.68-.15,6-.17,12,0,18C207.74,161.14,206.82,161.37,205,161.31Zm46,0c-3.06-.11-6.13,0-9.19,0-2.8,0-5.62-.11-8.41,0-2,.11-2.92-.26-2.85-2.6.18-5.86.18-11.74,0-17.6-.08-2.47.79-2.94,3.05-2.88,5.74.17,11.48.14,17.22,0,2.08-.05,2.89.43,2.84,2.68-.15,6-.17,12,0,18C253.72,161.14,252.79,161.37,251,161.31Z"/></g></g></svg>