<svg xmlns="http://www.w3.org/2000/svg" viewBox="0 0 130 130"><defs><style>.cls-1{fill:#fff;}.cls-2{fill:#0096dc;}.cls-3{fill:#00c3ff;}</style></defs><title>employer-light-bg</title><g id="Layer_2" data-name="Layer 2"><g id="Layer_1-2" data-name="Layer 1"><rect class="cls-1" width="130" height="130" rx="27.74"/><path class="cls-2" d="M54.66,75l7-9.7a23.79,23.79,0,0,0,1.45-2,3.06,3.06,0,0,1,3.28-1.52,20.49,20.49,0,0,1,11.2,4.13c.25.18.48.37.71.57,0,0,0,.13.08.24a22.38,22.38,0,0,0-2.16.64,9.32,9.32,0,0,0-6.07,7.42c-.14.82-.46,1-1.18.94a11.57,11.57,0,0,0-4.84.67,9.64,9.64,0,0,0-6.13,9Q58,94,58,102.7c0,.9-.22,1.12-1.11,1.11q-7.23-.06-14.44,0c-.87,0-1.08-.21-1.06-1.06.05-3.44,0-6.88,0-10.32,0-.26,0-.53,0-.8a1.92,1.92,0,1,0-3.82.09c0,3.66,0,7.33,0,11,0,.94-.29,1.1-1.14,1.09-4.59,0-9.17,0-13.75,0-2.25,0-2.88-.77-2.51-3,1.2-7.19,2.37-14.38,3.57-21.56C25.18,70.88,30,65.38,38,62.59a19.83,19.83,0,0,1,5.52-.93,2.54,2.54,0,0,1,2.42,1.17c2.66,3.73,5.35,7.43,8,11.14C54.14,74.28,54.38,74.58,54.66,75Z"/><path class="cls-2" d="M54.7,17.39A17.12,17.12,0,0,1,71.43,37.67a33,33,0,0,1-7.4,16,16.21,16.21,0,0,1-3.33,3,10.29,10.29,0,0,1-12.29-.12,20,20,0,0,1-5.31-5.64,33.67,33.67,0,0,1-5.36-14.31A17.07,17.07,0,0,1,54.7,17.39Z"/><path class="cls-3" d="M109.83,85a5.67,5.67,0,0,0-5.73-5.53c-1.07,0-2.14,0-3.21,0s-2.22.32-2.77-.16-.15-1.86-.22-2.83v-.23a5.71,5.71,0,0,0-5.65-5.74c-4.28-.06-8.56,0-12.84,0A5.68,5.68,0,0,0,74,74.77a8.75,8.75,0,0,0-.2,2.39c0,2.27,0,2.27-2.32,2.27h-3.1c-4.21,0-6.54,2.31-6.54,6.49,0,6.68.11,13.37,0,20.06a6.21,6.21,0,0,0,6.6,6.63c5.81-.12,11.62,0,17.43,0h17.42a14.72,14.72,0,0,0,1.49-.08,5.6,5.6,0,0,0,5.11-5.41Q109.94,96,109.83,85ZM91.3,79.43H85.8c-2.45,0-4.89,0-7.34,0-.69,0-.95-.15-.88-.88s0-1.45,0-2.18a2,2,0,0,1,2.05-2.15q6.19-.08,12.38,0a2,2,0,0,1,2.08,2C94.46,79.43,94.46,79.43,91.3,79.43Z"/></g></g></svg>