<svg xmlns="http://www.w3.org/2000/svg" viewBox="0 0 32 32"><defs><style>.cls-1{fill:#fec201;}.cls-2{fill:#fed301;}.cls-3{fill:#faad17;}.cls-4{fill:#fa9a00;}.cls-5{fill:#fa9a01;}.cls-6{fill:#faa306;}</style></defs><title>gold-coin</title><g id="Layer_2" data-name="Layer 2"><g id="Layer_1-2" data-name="Layer 1"><circle class="cls-1" cx="16" cy="16" r="16"/><path class="cls-2" d="M30.43,16.06A14.31,14.31,0,1,1,16.31,1.72,14.23,14.23,0,0,1,30.43,16.06Z"/><path class="cls-3" d="M20.74,24.59l-3.89-2a1.15,1.15,0,0,0-1.22-.07,1,1,0,0,0-.89.2c-.85.48-1.74.88-2.59,1.37a7.53,7.53,0,0,1-1.11.53,1.16,1.16,0,0,1-.75-1.52c.25-1.35.5-2.7.71-4.06a1.14,1.14,0,0,0-.42-1c-.95-.91-1.9-1.82-2.84-2.74A1.15,1.15,0,0,1,7.3,14c.2-.57.66-.71,1.21-.78,1.36-.18,2.72-.39,4.07-.6a1,1,0,0,0,.75-.68l1.8-3.62a1.24,1.24,0,0,1,.9-.78,10.2,10.2,0,0,1,1.49,2.63c.25.53.51,1,.76,1.57a1.34,1.34,0,0,0,1,.83c1.05.27,2.12.33,3.18.51l.49.08c.18,0,.36,0,.54.07a1.13,1.13,0,0,1,.58,1.93,19.48,19.48,0,0,1-2.38,2.34,2.09,2.09,0,0,0-.87,2.39c.26,1.06.37,2.16.57,3.24A1.2,1.2,0,0,1,20.74,24.59Z"/><path class="cls-4" d="M20.74,24.59c1-.77.48-1.75.35-2.66s-.29-1.69-.46-2.54a1.94,1.94,0,0,1,.93-1.95A32.85,32.85,0,0,0,24.1,15a1,1,0,0,0,.13-1.12A1.21,1.21,0,0,0,23,13.2a.07.07,0,0,1,0-.07l0,0a4.4,4.4,0,0,1,1.14.14A1,1,0,0,1,25,14a1.06,1.06,0,0,1-.31,1.09c-.86.84-1.64,1.75-2.56,2.52A2.08,2.08,0,0,0,21.46,20c.23,1,.4,2.08.56,3.12S21.73,24.61,20.74,24.59Z"/><path class="cls-4" d="M19.23,12.6a1,1,0,0,1-.94-.61c-.44-.88-.84-1.77-1.29-2.65a4.92,4.92,0,0,0-1-1.61c-.08-.06,0-.15,0-.22a1.27,1.27,0,0,1,1.18.82c.54,1.15,1.14,2.28,1.7,3.42a1.69,1.69,0,0,0,.62.75C19.5,12.75,19.35,12.64,19.23,12.6Z"/><path class="cls-5" d="M11,24.59a4.34,4.34,0,0,1,1.26-.75c.83-.5,1.71-.93,2.59-1.35.21-.1.5-.43.74,0L12,24.38A1.49,1.49,0,0,1,11,24.59Z"/><path class="cls-6" d="M19.23,12.6c.11,0,.23,0,.3-.1.81.22,1.64.26,2.46.4a3.69,3.69,0,0,1,1,.2v.1l-3.63-.51A.7.7,0,0,1,19.23,12.6Z"/></g></g></svg>