<svg xmlns="http://www.w3.org/2000/svg" viewBox="0 0 130 130"><defs><style>.cls-1{fill:#d7eef7;}.cls-2{fill:#0096dc;}.cls-3{fill:#fefefe;}.cls-4{fill:#c08e59;}.cls-5{fill:#00c3ff;}.cls-6{fill:#f6d1b6;}</style></defs><title>Asset 1</title><g id="Layer_2" data-name="Layer 2"><g id="Layer_1-2" data-name="Layer 1"><rect class="cls-1" width="130" height="130" rx="27.74"/><path class="cls-2" d="M98.91,63.23c-.17,10.3-1.94,17.1-5.75,23.29-.89,1.42-.59,2.15.47,3.12C98.8,94.7,103.93,99.85,109,105a7.92,7.92,0,0,1-6.22,13.59,8.46,8.46,0,0,1-5.48-2.75c-5-5-10.06-10-15.08-15.08a2,2,0,0,0-2.79-.47h0l-.18.14A40.09,40.09,0,1,1,61.51,26.07C82.84,27.69,99.08,45.24,98.91,63.23Z"/><path class="cls-3" d="M58.73,41.88a24.17,24.17,0,1,1-.17,0Z"/><path class="cls-4" d="M84.82,34.22c-.35,5.19-2.56,9.59-5.73,13.59-.63.37-.75,1.22-1.44,1.54V38.79A9.77,9.77,0,0,0,77.49,37,19,19,0,0,0,74,29.72c-1.15-1.64-1.14-1.68-2.66-.47a26,26,0,0,1-11.9,5.65,51.27,51.27,0,0,1-10.36.4,9.61,9.61,0,0,0-9.23,6.81c-.69,2.38-.19,4.83-.33,7.24-.69-.33-.82-1.17-1.44-1.55-2.33-3.15-4.52-6.38-5.24-10.35-.19-1.06-.33-2.14-.49-3.21C32,22,40.76,13.17,52.86,11.77a39.6,39.6,0,0,1,15.37.71C79.12,15.52,85.13,24.15,84.82,34.22Z"/><path class="cls-5" d="M69.84,78.82c-1.37-.19-2.73-.44-4.09-.65a12.93,12.93,0,0,1-14.33,0c-2.58.46-5.2.77-7.73,1.41a18.89,18.89,0,0,0-4,1.5,24.16,24.16,0,0,0,37.78.09A23.25,23.25,0,0,0,69.84,78.82Z"/><path class="cls-6" d="M51.42,78.16c0-3.11-.07-6.23,0-9.35a2,2,0,0,0-1.31-2.14c-7-3.66-10.49-9.46-10.6-17.32.14-2.41-.36-4.86.33-7.24a9.61,9.61,0,0,1,9.23-6.81,51.27,51.27,0,0,0,10.36-.4,26,26,0,0,0,11.92-5.65c1.52-1.21,1.51-1.17,2.66.47A19.17,19.17,0,0,1,77.49,37a9.45,9.45,0,0,1,.16,1.76V49.32c-.12,7.8-3.62,13.57-10.47,17.26A2.26,2.26,0,0,0,65.73,69c.09,3.06,0,6.13,0,9.2A12.91,12.91,0,0,1,51.42,78.16Z"/></g></g></svg>