<svg xmlns="http://www.w3.org/2000/svg" viewBox="0 0 130 130"><defs><style>.cls-1{fill:#d7eef7;}.cls-2{fill:#0096dc;}.cls-3{fill:#00c3ff;}.cls-4{fill:#fefefe;}</style></defs><title>Employer-user</title><g id="Layer_2" data-name="Layer 2"><g id="Layer_1-2" data-name="Layer 1"><rect class="cls-1" width="130" height="130" rx="27.74"/><path class="cls-2" d="M106.77,48.1a9.89,9.89,0,0,0-10-9.64H91.19c-1.87,0-3.87.56-4.83-.27s-.26-3.25-.38-4.94v-.4a10,10,0,0,0-9.85-10c-7.46-.11-14.92,0-22.38,0a9.89,9.89,0,0,0-9.43,7.42A15.38,15.38,0,0,0,44,34.44c0,4,0,4-4,4H34.52c-7.33,0-11.39,4-11.39,11.32,0,11.64.19,23.3,0,35a10.81,10.81,0,0,0,10,11.55,10.15,10.15,0,0,0,1.46,0c10.13-.21,20.25,0,30.38,0H95.37c.87,0,1.74,0,2.6-.14a9.75,9.75,0,0,0,8.9-9.43Q107,67.28,106.77,48.1Zm-32.3-9.71H52.09c-1.2,0-1.65-.26-1.53-1.53s0-2.53,0-3.8a3.48,3.48,0,0,1,3.21-3.74h.36q10.8-.14,21.58,0a3.49,3.49,0,0,1,3.62,3.35s0,.09,0,.14C80,38.39,80,38.39,74.47,38.39Z"/><path class="cls-3" d="M84,76.19c-.09,5.76-1.08,9.57-3.22,13A1.15,1.15,0,0,0,81,91c2.89,2.83,5.76,5.71,8.61,8.61a4.43,4.43,0,0,1-3.49,7.6,4.72,4.72,0,0,1-3.06-1.54c-2.8-2.82-5.63-5.61-8.44-8.44a1.12,1.12,0,0,0-1.56-.26L73,97A22.43,22.43,0,1,1,63.05,55.4C75,56.3,84.07,66.13,84,76.19Z"/><path class="cls-4" d="M61.49,64.25a13.53,13.53,0,1,1-.09,0Z"/></g></g></svg>