<svg xmlns="http://www.w3.org/2000/svg" viewBox="0 0 1709 1510"><defs><style>.cls-1{fill:#f4f4f4;}.cls-2{fill:#fff;}.cls-3{fill:#e0e7fe;}.cls-4{fill:#055e9f;}</style></defs><title>schedule</title><g id="Layer_2" data-name="Layer 2"><g id="Layer_1-2" data-name="Layer 1"><circle class="cls-1" cx="806" cy="755" r="755"/><rect class="cls-2" y="324.5" width="1709" height="861" rx="143.68"/><rect class="cls-1" x="537.3" y="437.8" width="634.4" height="634.4" rx="93.03"/><path class="cls-3" d="M854.45,1021.51c-54,0-108,.14-161.92,0-33.53-.13-60.41-14.23-81.44-40-15.7-19.29-23-41.34-23-66.21.16-91.07-.2-182.14.25-273.2.12-24.56,10.11-45.88,26.46-64.23,16.84-18.88,37.77-30.32,62.56-34.65,12.1-2.11,24.4-2.23,36.66-1.69,5.06.22,6.87-1.14,6.8-6.51-.12-8.28-1.16-16.64.82-24.87,3.69-15.31,14.93-23,31.06-21.31,11.63,1.24,21.84,14,21.87,27.28,0,6.88.13,13.76-.05,20.63-.1,3.48,1.11,4.78,4.66,4.74,14.38-.14,28.76-.17,43.14,0,4.15.05,4.6-1.92,4.76-5.35.45-9.9-1.6-19.92,2.07-29.69,4.32-11.52,12.94-17.73,25.76-17.7,11.88,0,20.83,6.76,25,17.9,3.45,9.17,1.88,18.55,1.92,27.83,0,5.37,1.25,7.25,6.93,7.07,13.53-.42,27.09-.23,40.63-.07,3.73.05,5.23-1.06,5.1-5-.25-7.08-.1-14.17-.06-21.26.06-12.38,10.26-24.94,21.44-26.43,15.46-2.06,27.68,5.92,31.31,20.27,2.19,8.65,1,17.42,1,26.11,0,5,1.45,6.45,6.38,6.3,19.57-.57,39.14-.23,57.64,7.32,37.3,15.21,60,42.48,67.5,82.28a92.15,92.15,0,0,1,1.12,17.36q0,134.42,0,268.83c0,23.54-7.64,44.32-21.81,62.9-18.08,23.7-42.37,36.66-71.48,41.22a40.53,40.53,0,0,1-6.24.15ZM908,795.33q0-31.87,0-63.74a34.51,34.51,0,0,0-1.84-12.27c-4.44-11.88-16.66-19.24-28.68-17.25-13.45,2.23-22.88,12.77-22.94,26.32-.13,32.92-.21,65.83.1,98.74.06,6.2-1.09,8.37-7.89,8.24-23.95-.48-47.91-.25-71.87-.16a26.72,26.72,0,0,0-25.31,17c-6.91,17.91,6.18,36.24,26.32,36.35,34,.19,67.91.08,101.86,0,19.33,0,30.19-10.88,30.22-30.22Q908.05,826.9,908,795.33Z"/><path class="cls-4" d="M908,795.33q0,31.56,0,63.11c0,19.34-10.89,30.21-30.22,30.22-33.95,0-67.91.14-101.86,0-20.14-.11-33.23-18.44-26.32-36.35a26.72,26.72,0,0,1,25.31-17c24-.09,47.92-.32,71.87.16,6.8.13,8-2,7.89-8.24-.31-32.91-.23-65.82-.1-98.74.06-13.55,9.49-24.09,22.94-26.32,12-2,24.24,5.37,28.68,17.25A34.51,34.51,0,0,1,908,731.59Q908,763.45,908,795.33Z"/></g></g></svg>