<svg xmlns="http://www.w3.org/2000/svg" viewBox="0 0 130 130"><defs><style>.cls-1{fill:#d7eef7;}.cls-2{fill:#0096dc;}.cls-3{fill:#00c3ff;}.cls-4{fill:#7a8d9a;}.cls-5{fill:#e1e1e1;}</style></defs><title>service-provide-dark-bg</title><g id="Layer_2" data-name="Layer 2"><g id="Layer_1-2" data-name="Layer 1"><rect class="cls-1" width="130" height="130" rx="27.74"/><path class="cls-2" d="M51.65,66.81c-4,4-7.95,8-11.9,12a1.24,1.24,0,0,1-1.24.31,15.75,15.75,0,0,0-18,19.78c.26.92.27.92,1,.23C25,95.55,28.52,92,32,88.5a1.11,1.11,0,0,1,1.35-.35,13.18,13.18,0,0,1,8.49,8.48A1.15,1.15,0,0,1,41.53,98c-3.53,3.47-7,7-10.52,10.47-.22.22-.58.37-.56.8A15.77,15.77,0,0,0,50.93,91.41a1.16,1.16,0,0,1,.32-1.16q6-5.94,11.94-11.9L78.35,63.19q5.9-5.88,11.79-11.77A1.38,1.38,0,0,1,91.59,51a12.58,12.58,0,0,0,2.45.26,15.73,15.73,0,0,0,14.76-9.57,15.34,15.34,0,0,0,.44-11.23c-.42.09-.59.41-.82.63-3.5,3.5-7,7-10.47,10.51a1.07,1.07,0,0,1-1.28.31,13.15,13.15,0,0,1-8.51-8.44A1.18,1.18,0,0,1,88.51,32c3.52-3.48,7-7,10.49-10.5.22-.22.58-.36.55-.77a15.41,15.41,0,0,0-7.68-.59A15.77,15.77,0,0,0,79.08,38.61a1.15,1.15,0,0,1-.34,1.14q-6,5.94-11.93,11.9Z"/><path class="cls-3" d="M87.08,102.06a2.7,2.7,0,0,1-.83-.71L64,79.14c-.26-.25-.54-.49-.81-.73a2.1,2.1,0,0,1-.94-.7l-9.9-9.9a2.1,2.1,0,0,1-.7-.94c-.24-.27-.48-.55-.73-.81L28.25,43.35c-.26-.26-.49-.54-.73-.81a1,1,0,0,1,.65-.46,24.14,24.14,0,0,0,8-4.85c.23-.19.43-.44.76-.47a1.6,1.6,0,0,1,.79.59c7.06,7,14.18,14,21.15,21.19,3.55,3.65,7.09,7.31,10.75,10.85,8.78,8.48,17.28,17.24,26,25.82.36.35.84.64.88,1.23a1.16,1.16,0,0,1-.47.64A24.13,24.13,0,0,1,87.84,102C87.59,102.09,87.35,102.28,87.08,102.06Z"/><path class="cls-2" d="M101.4,86.33c.28.28.54.58.81.87a24.28,24.28,0,0,1-5,8.68c-.21.23-.35.6-.78.48-.23-.24-.44-.5-.68-.74C87.81,87.72,80,79.77,72,72c-3.85-3.78-7.75-7.52-11.5-11.4-7.56-7.85-15.38-15.42-23-23.18a6.22,6.22,0,0,1-.46-.56c-.07-.36.2-.55.39-.77A24.6,24.6,0,0,0,42,28.29c.11-.31.2-.66.64-.66Z"/><path class="cls-4" d="M96.39,96.36a22.2,22.2,0,0,0,5.18-8.13c.14-.37.11-.88.64-1,2.53,2.51,5.06,5,7.61,7.53a.81.81,0,0,1,.17,1A22.71,22.71,0,0,1,95.77,110a.87.87,0,0,1-1.06-.17c-2.51-2.54-5-5-7.56-7.58a.46.46,0,0,1-.07-.16,25.76,25.76,0,0,0,9-5.34A3.17,3.17,0,0,0,96.39,96.36Z"/><path class="cls-5" d="M42.68,27.63c-.47.33-.47.9-.65,1.36a25.93,25.93,0,0,1-5,7.82,24.7,24.7,0,0,1-9.48,5.73Q25.77,37.38,24,32.21c.17-.34.51-.41.81-.54a12.55,12.55,0,0,0,6.91-7,1,1,0,0,1,.47-.64C35.7,25.24,39.25,26.25,42.68,27.63Z"/><path class="cls-4" d="M32.22,24A12.68,12.68,0,0,1,24,32.21L19.92,19.92Z"/></g></g></svg>