<svg xmlns="http://www.w3.org/2000/svg" viewBox="0 0 130 130"><defs><style>.cls-1{fill:#d7eef7;}.cls-2{fill:#0096dc;}.cls-3{fill:#00c3ff;}</style></defs><title>Talent-user</title><g id="Layer_2" data-name="Layer 2"><g id="Layer_1-2" data-name="Layer 1"><rect class="cls-1" width="130" height="130" rx="27.74"/><path class="cls-2" d="M33,111.42V93.72c.68-.2,1.38-.45,2.09-.59A25.7,25.7,0,0,0,43,90a51.47,51.47,0,0,1,6.31-3,8.55,8.55,0,0,1,6.1,0c4.56,1.54,9.13,3,13.69,4.54a2.6,2.6,0,0,1,1.92,3.59c-.53,1.89-2.18,3.11-3.82,2.64-3.82-1.08-7.62-2.26-11.42-3.4-.26-.07-.51-.15-.77-.21a1.85,1.85,0,0,0-2.46,1.12A1.82,1.82,0,0,0,54,97.55c2.4.76,4.81,1.46,7.22,2.18,1,.31,2.07.53,3,.93a7.23,7.23,0,0,0,5.92-.06c5.91-2.55,11.85-5,17.66-7.8,4.94-2.36,9.65-5.18,14.59-7.54a10.72,10.72,0,0,1,4.85-.56A1.65,1.65,0,0,1,108.73,87a7.73,7.73,0,0,1-1.79,3.13,138,138,0,0,1-18.32,13.76q-6,3.91-12.19,7.47a22.44,22.44,0,0,1-17.27,2.25c-7.9-2-16-2.31-24.09-2.23C34.42,111.43,33.77,111.42,33,111.42Z"/><path class="cls-3" d="M68.81,85c0-.46-.07-.79-.07-1.13,0-8.7,0-17.41,0-26.12a1.89,1.89,0,0,1,.71-1.45c7.58-4,15.18-7.93,22.78-11.88.15-.07.31-.11.58-.21,0,.44,0,.77,0,1.11,0,8.7,0,17.41,0,26.12A1.47,1.47,0,0,1,92.06,73c-7.5,3.85-15,7.76-22.45,11.64C69.39,84.8,69.15,84.89,68.81,85Z"/><path class="cls-3" d="M40.91,44.13c.76.38,1.3.64,1.83.92C49.87,48.76,57,52.45,64.09,56.2A1.89,1.89,0,0,1,65,57.52c.06,8.92,0,17.84,0,26.76a7.28,7.28,0,0,1-.1.79l-4.19-2.18c-6.3-3.28-12.6-6.55-18.88-9.86A1.82,1.82,0,0,1,41,71.85C40.9,62.71,40.91,53.57,40.91,44.13Z"/><path class="cls-2" d="M43.11,41.09,55.9,34.43c3.36-1.75,6.72-3.52,10.1-5.24A1.88,1.88,0,0,1,67.44,29c7.69,4,15.36,8,23.26,12.06-.5.31-.83.54-1.19.72-7.2,3.75-14.4,7.51-21.62,11.22a2.25,2.25,0,0,1-1.78.06C58.73,49.28,51.37,45.44,44,41.61,43.79,41.49,43.57,41.35,43.11,41.09Z"/><path class="cls-3" d="M20.71,103.46c0-3.8,0-7.6,0-11.4,0-1.12.38-1.46,1.46-1.42,2,.06,4,0,6,0,.92,0,1.24.32,1.24,1.23q0,11.66,0,23.31c0,.9-.32,1.28-1.24,1.26q-3-.07-6.09,0c-1,0-1.32-.36-1.31-1.33C20.74,111.23,20.71,107.34,20.71,103.46Z"/><path class="cls-2" d="M105.34,58.07a14.85,14.85,0,0,1-2.11,0,2,2,0,0,1-1.84-2,1.89,1.89,0,0,1,1.78-2.09,24.31,24.31,0,0,1,4.35,0,1.92,1.92,0,0,1,1.79,2.1,2,2,0,0,1-1.86,2A16.47,16.47,0,0,1,105.34,58.07Z"/><path class="cls-2" d="M41.21,32.45a7.28,7.28,0,0,1-1.6-.83,38.07,38.07,0,0,1-2.7-2.69,2.09,2.09,0,0,1,2.92-3,17.44,17.44,0,0,1,2.75,2.82,2.85,2.85,0,0,1,.3,2.28C42.66,31.63,41.79,32,41.21,32.45Z"/><path class="cls-2" d="M97.69,27.25A5.34,5.34,0,0,1,97,28.78a31.36,31.36,0,0,1-3,3,1.9,1.9,0,0,1-2.75-.19,1.92,1.92,0,0,1-.13-2.76,19.13,19.13,0,0,1,3-2.95,2.63,2.63,0,0,1,2.18-.18C96.93,25.9,97.27,26.72,97.69,27.25Z"/><path class="cls-2" d="M69,17.57c0,.66,0,1.33,0,2a2,2,0,0,1-2,1.94,1.87,1.87,0,0,1-2.17-1.68,21.54,21.54,0,0,1,0-4.47A2,2,0,0,1,67,13.56a2.08,2.08,0,0,1,2,2C69.05,16.25,69,16.91,69,17.57Z"/><path class="cls-2" d="M28.45,58.08c-.62,0-1.24,0-1.85,0A2.14,2.14,0,0,1,24.5,56a2.09,2.09,0,0,1,2-2.09,34.88,34.88,0,0,1,4.09,0A2,2,0,0,1,32.43,56a2,2,0,0,1-1.88,2,16.34,16.34,0,0,1-2.1,0Z"/></g></g></svg>