<svg xmlns="http://www.w3.org/2000/svg" viewBox="0 0 130 130"><defs><style>.cls-1{fill:#fff;}.cls-2{fill:#0096dc;}.cls-3{fill:#00c3ff;}.cls-4{fill:#fefefe;}</style></defs><title>tech-talent-light-bg</title><g id="Layer_2" data-name="Layer 2"><g id="Layer_1-2" data-name="Layer 1"><rect class="cls-1" width="130" height="130" rx="27.74"/><path class="cls-2" d="M65,70.86H40.8c-3.25,0-4.68,1.75-4.25,5,.9,6.77,1.73,13.55,2.59,20.32.09.68.14,1.36.24,2,.08.46-.09.6-.54.59-1.47,0-2.94,0-4.41,0a2,2,0,0,1-2.15-2.22c0-1.57,0-3.14,0-4.71,0-7.08.17-14.16-.06-21.23C32,64.56,34.91,60.68,40,58.07c3.78-1.94,7.89-2.78,12-3.53a71.5,71.5,0,0,1,19.81-.78,60.46,60.46,0,0,1,16.27,3.43,18,18,0,0,1,6.19,3.9,10.85,10.85,0,0,1,3.42,8.07q0,13.59,0,27.18c0,1.68-.77,2.43-2.44,2.45-1.27,0-2.54-.05-3.8,0-.85.05-.94-.27-.85-1,.6-4.57,1.17-9.15,1.75-13.72.37-2.91.77-5.82,1.11-8.74s-1.23-4.5-4.07-4.5Q77.21,70.85,65,70.86Z"/><path class="cls-3" d="M65,74.14c8,0,16.06,0,24.1,0,.93,0,1.25.2,1.12,1.2q-1.55,11.84-3,23.68c-.08.65-.31.75-.88.75q-21.33,0-42.66,0c-.58,0-.81-.1-.89-.75-.92-7.53-1.89-15-2.82-22.57-.29-2.28-.25-2.29,2.07-2.29Z"/><path class="cls-3" d="M65,114.56H18.75c-2.4,0-3-.59-3-2.94,0-1.54,0-3.08,0-4.62A2.11,2.11,0,0,1,18,104.66h93.23c.3,0,.61,0,.92,0a2.06,2.06,0,0,1,2.06,2.21c0,1.81,0,3.62,0,5.44a2,2,0,0,1-2,2.21c-.34,0-.69,0-1,0Z"/><path class="cls-2" d="M50.25,30.89a20.51,20.51,0,0,1,.87-6.15C53,19.13,57,16.26,62.76,15.59a17.4,17.4,0,0,1,8.28.87c4.9,1.85,7.57,5.54,8.35,10.61,1,6.53-.22,12.59-4.37,17.84C72.14,48.55,68.39,50.57,63.6,50a12.78,12.78,0,0,1-8.66-5.13A22.33,22.33,0,0,1,50.25,30.89Z"/><path class="cls-4" d="M65,83.88a4.71,4.71,0,1,1-4.76,4.63A4.71,4.71,0,0,1,65,83.88Z"/></g></g></svg>