<svg width="99" height="79" viewBox="0 0 99 79" fill="none" xmlns="http://www.w3.org/2000/svg">
<path d="M5.08866 30.5343H16.9622V61.0663H8.4811C8.03123 61.0663 7.59979 61.245 7.28169 61.5631C6.96359 61.8812 6.78488 62.3126 6.78488 62.7625C6.78488 63.2124 6.96359 63.6438 7.28169 63.9619C7.59979 64.28 8.03123 64.4587 8.4811 64.4587H89.8997C90.3495 64.4587 90.781 64.28 91.0991 63.9619C91.4172 63.6438 91.5959 63.2124 91.5959 62.7625C91.5959 62.3126 91.4172 61.8812 91.0991 61.5631C90.781 61.245 90.3495 61.0663 89.8997 61.0663H81.4186V30.5343H93.2921C93.662 30.5352 94.022 30.4151 94.3173 30.1924C94.6126 29.9696 94.827 29.6565 94.9279 29.3006C95.0288 28.9447 95.0105 28.5656 94.876 28.2211C94.7414 27.8766 94.4979 27.5854 94.1826 27.3921L50.0809 0.252563C49.8132 0.0874438 49.5049 0 49.1904 0C48.8759 0 48.5675 0.0874438 48.2999 0.252563L4.19814 27.3921C3.88281 27.5854 3.63933 27.8766 3.50478 28.2211C3.37023 28.5656 3.35199 28.9447 3.45285 29.3006C3.5537 29.6565 3.76812 29.9696 4.06343 30.1924C4.35875 30.4151 4.71877 30.5352 5.08866 30.5343ZM20.3546 30.5343H37.3168V61.0663H20.3546V30.5343ZM57.6715 30.5343V61.0663H40.7093V30.5343H57.6715ZM78.0261 61.0663H61.0639V30.5343H78.0261V61.0663ZM49.1904 3.69165L87.3002 27.1419H11.0806L49.1904 3.69165ZM98.3808 76.3323C98.3808 76.7821 98.202 77.2136 97.8839 77.5317C97.5658 77.8498 97.1344 78.0285 96.6845 78.0285H1.69622C1.24635 78.0285 0.814914 77.8498 0.496811 77.5317C0.178708 77.2136 0 76.7821 0 76.3323C0 75.8824 0.178708 75.451 0.496811 75.1328C0.814914 74.8147 1.24635 74.636 1.69622 74.636H96.6845C97.1344 74.636 97.5658 74.8147 97.8839 75.1328C98.202 75.451 98.3808 75.8824 98.3808 76.3323Z" fill="#2596BE"/>
<path d="M48.1699 59.1927V56.2922H50.04V59.1927H48.1699ZM48.1699 38.749V35.8357H50.04V38.749H48.1699ZM49.3276 57.0682C48.1148 57.0682 47.0208 56.8519 46.0454 56.4194C45.0786 55.9868 44.2771 55.3762 43.641 54.5875C43.0134 53.7987 42.6021 52.8658 42.407 51.7887L44.2262 51.4706C44.5061 52.641 45.1083 53.5697 46.0327 54.2567C46.9656 54.9352 48.0894 55.2744 49.4039 55.2744C50.7355 55.2744 51.8126 54.9521 52.6352 54.3076C53.4579 53.6545 53.8692 52.8022 53.8692 51.7505C53.8692 50.9703 53.6403 50.3469 53.1823 49.8804C52.7243 49.414 51.9483 49.0154 50.8542 48.6846L46.7833 47.4124C44.3238 46.6407 43.094 45.1819 43.094 43.0362C43.094 42.0354 43.34 41.1576 43.8319 40.4028C44.3322 39.6395 45.0235 39.0458 45.9055 38.6218C46.796 38.1977 47.8349 37.9899 49.0223 37.9984C50.1842 37.9984 51.2231 38.2189 52.1391 38.6599C53.0635 39.0925 53.8226 39.7074 54.4163 40.5046C55.01 41.3018 55.4043 42.2475 55.5994 43.3415L53.7293 43.6977C53.6106 42.9175 53.3349 42.2347 52.9024 41.6495C52.4783 41.0643 51.9313 40.6106 51.2613 40.2883C50.5913 39.9576 49.845 39.7879 49.0223 39.7795C48.242 39.7795 47.5466 39.9152 46.9359 40.1865C46.3253 40.4579 45.8419 40.8353 45.4857 41.3188C45.138 41.7937 44.9641 42.3407 44.9641 42.9599C44.9641 43.6384 45.2058 44.2151 45.6892 44.69C46.1811 45.1565 46.9571 45.5508 48.0173 45.8731L51.5157 46.929C52.9914 47.37 54.0558 47.9637 54.7089 48.7101C55.3619 49.4564 55.6884 50.4529 55.6884 51.6996C55.6884 52.7767 55.4255 53.7181 54.8997 54.5238C54.3739 55.3295 53.6318 55.9571 52.6734 56.4066C51.7235 56.8477 50.6083 57.0682 49.3276 57.0682Z" fill="#006A90"/>
</svg>
