<svg width="33" height="26" viewBox="0 0 33 26" fill="none" xmlns="http://www.w3.org/2000/svg">
<path d="M1.69622 10.1781H5.65407V20.3554H2.82703C2.67708 20.3554 2.53326 20.415 2.42723 20.521C2.3212 20.6271 2.26163 20.7709 2.26163 20.9208C2.26163 21.0708 2.3212 21.2146 2.42723 21.3206C2.53326 21.4267 2.67708 21.4862 2.82703 21.4862H29.9666C30.1165 21.4862 30.2603 21.4267 30.3664 21.3206C30.4724 21.2146 30.532 21.0708 30.532 20.9208C30.532 20.7709 30.4724 20.6271 30.3664 20.521C30.2603 20.415 30.1165 20.3554 29.9666 20.3554H27.1395V10.1781H31.0974C31.2207 10.1784 31.3407 10.1384 31.4391 10.0641C31.5375 9.98988 31.609 9.88549 31.6426 9.76687C31.6763 9.64824 31.6702 9.52188 31.6253 9.40703C31.5805 9.29218 31.4993 9.19514 31.3942 9.13069L16.6936 0.0841877C16.6044 0.0291479 16.5016 0 16.3968 0C16.292 0 16.1892 0.0291479 16.1 0.0841877L1.39938 9.13069C1.29427 9.19514 1.21311 9.29218 1.16826 9.40703C1.12341 9.52188 1.11733 9.64824 1.15095 9.76687C1.18457 9.88549 1.25604 9.98988 1.35448 10.0641C1.45292 10.1384 1.57292 10.1784 1.69622 10.1781ZM6.78488 10.1781H12.4389V20.3554H6.78488V10.1781ZM19.2238 10.1781V20.3554H13.5698V10.1781H19.2238ZM26.0087 20.3554H20.3546V10.1781H26.0087V20.3554ZM16.3968 1.23055L29.1001 9.0473H3.69352L16.3968 1.23055ZM32.7936 25.4441C32.7936 25.594 32.734 25.7379 32.628 25.8439C32.5219 25.9499 32.3781 26.0095 32.2282 26.0095H0.565407C0.415451 26.0095 0.271638 25.9499 0.165604 25.8439C0.0595694 25.7379 0 25.594 0 25.4441C0 25.2941 0.0595694 25.1503 0.165604 25.0443C0.271638 24.9382 0.415451 24.8787 0.565407 24.8787H32.2282C32.3781 24.8787 32.5219 24.9382 32.628 25.0443C32.734 25.1503 32.7936 25.2941 32.7936 25.4441Z" fill="#C9C9C9"/>
<path d="M16.0566 19.7309V18.7641H16.68V19.7309H16.0566ZM16.0566 12.9163V11.9452H16.68V12.9163H16.0566ZM16.4425 19.0227C16.0383 19.0227 15.6736 18.9506 15.3485 18.8065C15.0262 18.6623 14.759 18.4587 14.547 18.1958C14.3378 17.9329 14.2007 17.6219 14.1357 17.2629L14.7421 17.1569C14.8354 17.547 15.0361 17.8566 15.3442 18.0856C15.6552 18.3117 16.0298 18.4248 16.468 18.4248C16.9118 18.4248 17.2709 18.3174 17.5451 18.1025C17.8193 17.8848 17.9564 17.6007 17.9564 17.2502C17.9564 16.9901 17.8801 16.7823 17.7274 16.6268C17.5748 16.4713 17.3161 16.3385 16.9514 16.2282L15.5944 15.8041C14.7746 15.5469 14.3647 15.0606 14.3647 14.3454C14.3647 14.0118 14.4467 13.7192 14.6106 13.4676C14.7774 13.2132 15.0078 13.0153 15.3018 12.8739C15.5987 12.7326 15.945 12.6633 16.3408 12.6661C16.7281 12.6661 17.0744 12.7396 17.3797 12.8866C17.6878 13.0308 17.9409 13.2358 18.1388 13.5015C18.3367 13.7673 18.4681 14.0825 18.5331 14.4472L17.9098 14.5659C17.8702 14.3058 17.7783 14.0782 17.6341 13.8832C17.4928 13.6881 17.3104 13.5369 17.0871 13.4294C16.8638 13.3192 16.615 13.2626 16.3408 13.2598C16.0807 13.2598 15.8489 13.3051 15.6453 13.3955C15.4418 13.486 15.2806 13.6118 15.1619 13.7729C15.046 13.9312 14.988 14.1136 14.988 14.32C14.988 14.5461 15.0686 14.7384 15.2297 14.8967C15.3937 15.0522 15.6524 15.1836 16.0058 15.291L17.1719 15.643C17.6638 15.79 18.0186 15.9879 18.2363 16.2367C18.454 16.4855 18.5628 16.8176 18.5628 17.2332C18.5628 17.5922 18.4752 17.906 18.2999 18.1746C18.1246 18.4432 17.8773 18.6524 17.5578 18.8022C17.2412 18.9492 16.8694 19.0227 16.4425 19.0227Z" fill="#006A90"/>
</svg>
