<svg width="24" height="24" viewBox="0 0 24 24" fill="none" xmlns="http://www.w3.org/2000/svg">
<path d="M8.64954 3.34953L5.85954 6.13953C5.53954 6.44953 5.75954 6.98953 6.20954 6.98953H7.99954V12.9995C7.99954 13.5495 8.44954 13.9995 8.99954 13.9995C9.54954 13.9995 9.99954 13.5495 9.99954 12.9995V6.98953H11.7895C12.2395 6.98953 12.4595 6.44953 12.1395 6.13953L9.34954 3.34953C9.15954 3.15953 8.83954 3.15953 8.64954 3.34953ZM15.9995 17.0095V10.9995C15.9995 10.4495 15.5495 9.99953 14.9995 9.99953C14.4495 9.99953 13.9995 10.4495 13.9995 10.9995V17.0095H12.2095C11.7595 17.0095 11.5395 17.5495 11.8595 17.8595L14.6495 20.6395C14.8495 20.8295 15.1595 20.8295 15.3595 20.6395L18.1495 17.8595C18.4695 17.5495 18.2395 17.0095 17.7995 17.0095H15.9995Z" fill="#667085"/>
</svg>
