<svg width="33" height="26" viewBox="0 0 33 26" fill="none" xmlns="http://www.w3.org/2000/svg">
<path d="M1.69622 10.1781H5.65407V20.3554H2.82703C2.67708 20.3554 2.53326 20.415 2.42723 20.521C2.3212 20.6271 2.26163 20.7709 2.26163 20.9208C2.26163 21.0708 2.3212 21.2146 2.42723 21.3206C2.53326 21.4267 2.67708 21.4862 2.82703 21.4862H29.9666C30.1165 21.4862 30.2603 21.4267 30.3664 21.3206C30.4724 21.2146 30.532 21.0708 30.532 20.9208C30.532 20.7709 30.4724 20.6271 30.3664 20.521C30.2603 20.415 30.1165 20.3554 29.9666 20.3554H27.1395V10.1781H31.0974C31.2207 10.1784 31.3407 10.1384 31.4391 10.0641C31.5375 9.98988 31.609 9.88549 31.6426 9.76687C31.6763 9.64824 31.6702 9.52188 31.6253 9.40703C31.5805 9.29218 31.4993 9.19514 31.3942 9.13069L16.6936 0.0841877C16.6044 0.0291479 16.5016 0 16.3968 0C16.292 0 16.1892 0.0291479 16.1 0.0841877L1.39938 9.13069C1.29427 9.19514 1.21311 9.29218 1.16826 9.40703C1.12341 9.52188 1.11733 9.64824 1.15095 9.76687C1.18457 9.88549 1.25604 9.98988 1.35448 10.0641C1.45292 10.1384 1.57292 10.1784 1.69622 10.1781ZM6.78488 10.1781H12.4389V20.3554H6.78488V10.1781ZM19.2238 10.1781V20.3554H13.5698V10.1781H19.2238ZM26.0087 20.3554H20.3546V10.1781H26.0087V20.3554ZM16.3968 1.23055L29.1001 9.0473H3.69352L16.3968 1.23055ZM32.7936 25.4441C32.7936 25.594 32.734 25.7379 32.628 25.8439C32.5219 25.9499 32.3781 26.0095 32.2282 26.0095H0.565407C0.415451 26.0095 0.271638 25.9499 0.165604 25.8439C0.0595694 25.7379 0 25.594 0 25.4441C0 25.2941 0.0595694 25.1503 0.165604 25.0443C0.271638 24.9382 0.415451 24.8787 0.565407 24.8787H32.2282C32.3781 24.8787 32.5219 24.9382 32.628 25.0443C32.734 25.1503 32.7936 25.2941 32.7936 25.4441Z" fill="#C9C9C9"/>
<path d="M16.0576 19.7309V18.7641H16.681V19.7309H16.0576ZM16.0576 12.9163V11.9452H16.681V12.9163H16.0576ZM16.4435 19.0227C16.0392 19.0227 15.6746 18.9506 15.3495 18.8065C15.0272 18.6623 14.76 18.4587 14.548 18.1958C14.3388 17.9329 14.2017 17.6219 14.1367 17.2629L14.7431 17.1569C14.8363 17.547 15.0371 17.8566 15.3452 18.0856C15.6562 18.3117 16.0308 18.4248 16.469 18.4248C16.9128 18.4248 17.2718 18.3174 17.5461 18.1025C17.8203 17.8848 17.9574 17.6007 17.9574 17.2502C17.9574 16.9901 17.8811 16.7823 17.7284 16.6268C17.5757 16.4713 17.3171 16.3385 16.9524 16.2282L15.5954 15.8041C14.7756 15.5469 14.3656 15.0606 14.3656 14.3454C14.3656 14.0118 14.4476 13.7192 14.6116 13.4676C14.7784 13.2132 15.0088 13.0153 15.3028 12.8739C15.5996 12.7326 15.946 12.6633 16.3417 12.6661C16.729 12.6661 17.0754 12.7396 17.3807 12.8866C17.6888 13.0308 17.9418 13.2358 18.1397 13.5015C18.3376 13.7673 18.4691 14.0825 18.5341 14.4472L17.9107 14.5659C17.8712 14.3058 17.7793 14.0782 17.6351 13.8832C17.4938 13.6881 17.3114 13.5369 17.0881 13.4294C16.8647 13.3192 16.616 13.2626 16.3417 13.2598C16.0817 13.2598 15.8498 13.3051 15.6463 13.3955C15.4427 13.486 15.2816 13.6118 15.1629 13.7729C15.047 13.9312 14.989 14.1136 14.989 14.32C14.989 14.5461 15.0696 14.7384 15.2307 14.8967C15.3947 15.0522 15.6534 15.1836 16.0067 15.291L17.1729 15.643C17.6648 15.79 18.0196 15.9879 18.2373 16.2367C18.4549 16.4855 18.5638 16.8176 18.5638 17.2332C18.5638 17.5922 18.4762 17.906 18.3009 18.1746C18.1256 18.4432 17.8782 18.6524 17.5588 18.8022C17.2422 18.9492 16.8704 19.0227 16.4435 19.0227Z" fill="#C9C9C9"/>
</svg>
