<svg width="25" height="25" viewBox="0 0 25 25" fill="none" xmlns="http://www.w3.org/2000/svg">
<rect width="24.0693" height="24.0693" fill="#C9C9C9"/>
<path d="M3.98009 11.5768L3.52361 11.2448L4.17929 10.3982L3.15427 10.087L3.32856 9.55166L4.33698 9.90855L4.31208 8.83373H4.87647L4.85157 9.90855L5.85584 9.55166L6.03014 10.087L5.00927 10.3982L5.65665 11.2448L5.20016 11.5768L4.59428 10.697L3.98009 11.5768ZM7.2255 14.8096V14.0999H7.93513V14.8096H7.2255ZM9.33286 14.8096V14.0999H10.0425V14.8096H9.33286ZM11.4402 14.8096V14.0999H12.1499V14.8096H11.4402ZM14.556 14.8054L15.0374 13.0085H13.3484L13.5019 12.4234H15.1951L15.5478 11.0913H13.8588L14.0165 10.5061H15.7097L16.1537 8.83373H16.7638L16.3114 10.5061H17.7016L18.1457 8.83373H18.7557L18.3034 10.5061H19.9924L19.8347 11.0913H18.1498L17.7888 12.4234H19.4778L19.3201 13.0085H17.6352L17.1538 14.8054H16.548L17.0252 13.0085H15.6433L15.1619 14.8054H14.556ZM15.801 12.4234H17.187L17.5398 11.0913H16.1579L15.801 12.4234Z" fill="white"/>
</svg>
