<svg width="575" height="575" viewBox="0 0 575 575" fill="none" xmlns="http://www.w3.org/2000/svg">
<g clip-path="url(#clip0_3257_3095)">
<path d="M0 0V199.038H199.038V0H0ZM243.269 0V44.2308H287.5V0H243.269ZM287.5 44.2308V88.4615H243.269V176.923H287.5V132.692H331.731V44.2308H287.5ZM287.5 176.923V243.269H88.4615V287.5H44.2308V331.731H132.692V287.5H176.923V331.731H287.5V287.5H331.731V331.731H398.077V287.5H442.308V243.269H331.731V176.923H287.5ZM442.308 287.5V331.731H575V287.5H530.769V243.269H486.538V287.5H442.308ZM44.2308 287.5V243.269H0V287.5H44.2308ZM375.962 0V199.038H575V0H375.962ZM44.2308 44.2308H154.808V154.808H44.2308V44.2308ZM420.192 44.2308H530.769V154.808H420.192V44.2308ZM66.3462 66.3462V132.692H132.692V66.3462H66.3462ZM442.308 66.3462V132.692H508.654V66.3462H442.308ZM243.269 353.846V398.077H287.5V353.846H243.269ZM287.5 398.077V442.308H243.269V530.769H287.5V486.538H375.962V442.308H420.192V398.077H464.423V442.308H420.192V486.538H375.962V575H420.192V530.769H464.423V486.538H486.538V530.769H464.423V575H508.654V530.769H530.769V486.538H575V398.077H530.769V353.846H375.962V398.077H287.5ZM530.769 530.769V575H575V530.769H530.769ZM287.5 530.769V575H331.731V530.769H287.5ZM0 375.962V575H199.038V375.962H0ZM44.2308 420.192H154.808V530.769H44.2308V420.192ZM66.3462 442.308V508.654H132.692V442.308H66.3462Z" fill="black"/>
</g>
<defs>
<clipPath id="clip0_3257_3095">
<rect width="575" height="575" fill="white"/>
</clipPath>
</defs>
</svg>
