<svg width="16" height="28" viewBox="0 0 16 28" fill="none" xmlns="http://www.w3.org/2000/svg">
<path d="M7 23H9M3 1H13C13.5304 1 14.0391 1.21071 14.4142 1.58579C14.7893 1.96086 15 2.46957 15 3V25C15 25.5304 14.7893 26.0391 14.4142 26.4142C14.0391 26.7893 13.5304 27 13 27H3C2.46957 27 1.96086 26.7893 1.58579 26.4142C1.21071 26.0391 1 25.5304 1 25V3C1 2.46957 1.21071 1.96086 1.58579 1.58579C1.96086 1.21071 2.46957 1 3 1Z" stroke="#C9C9C9" stroke-width="2" stroke-linecap="round" stroke-linejoin="round"/>
<path d="M4.25 7.25H5.5V8.5H4.25V7.25Z" fill="#006A90"/>
<path d="M6.75 6V9.75H3V6H6.75ZM6.125 6.625H3.625V9.125H6.125V6.625ZM5.5 13.5H4.25V14.75H5.5V13.5Z" fill="#006A90"/>
<path d="M6.75 12.25V16H3V12.25H6.75ZM3.625 12.875V15.375H6.125V12.875H3.625ZM10.5 7.25H11.75V8.5H10.5V7.25Z" fill="#006A90"/>
<path d="M9.25 6V9.75H13V6H9.25ZM12.375 6.625V9.125H9.875V6.625H12.375ZM8 6.625V6H8.625V7.25H8V8.5H7.375V6.625H8ZM8 9.75V8.5H8.625V9.75H8ZM6.75 11V10.375H7.375V9.75H8V11H8.625V10.375H11.75V11H9.25V11.625H7.375V11H6.75ZM6.75 11V11.625H4.25V11H3.625V11.625H3V10.375H4.875V11H6.75ZM13 11.625H12.375V10.375H13V11.625ZM12.375 11.625H11.75V12.875H13V12.25H12.375V11.625ZM9.875 11.625H11.125V12.25H10.5V12.875H9.875V11.625ZM11.125 13.5V12.875H10.5V13.5H9.875V14.125H8.625V14.75H10.5V13.5H11.125ZM11.125 13.5H13V14.125H11.75V14.75H11.125V13.5ZM8.625 12.875V13.5H9.25V12.25H7.375V12.875H8.625Z" fill="#006A90"/>
<path d="M7.375 13.5H8V15.375H10.5V16H7.375V13.5ZM13 14.75V16H11.125V15.375H12.375V14.75H13Z" fill="#006A90"/>
</svg>
