<svg width="25" height="25" viewBox="0 0 25 25" fill="none" xmlns="http://www.w3.org/2000/svg">
<rect width="24.0693" height="24.0693" fill="#C9C9C9"/>
<path d="M3.97912 11.5768L3.52263 11.2448L4.17831 10.3982L3.15329 10.087L3.32759 9.55166L4.33601 9.90855L4.31111 8.83373H4.87549L4.85059 9.90855L5.85487 9.55166L6.02916 10.087L5.00829 10.3982L5.65567 11.2448L5.19918 11.5768L4.5933 10.697L3.97912 11.5768ZM7.22452 14.8096V14.0999H7.93415V14.8096H7.22452ZM9.33189 14.8096V14.0999H10.0415V14.8096H9.33189ZM11.4393 14.8096V14.0999H12.1489V14.8096H11.4393ZM14.555 14.8054L15.0364 13.0085H13.3474L13.501 12.4234H15.1941L15.5469 11.0913H13.8579L14.0156 10.5061H15.7087L16.1527 8.83373H16.7628L16.3104 10.5061H17.7006L18.1447 8.83373H18.7547L18.3024 10.5061H19.9914L19.8337 11.0913H18.1488L17.7878 12.4234H19.4768L19.3191 13.0085H17.6343L17.1529 14.8054H16.547L17.0242 13.0085H15.6423L15.1609 14.8054H14.555ZM15.8 12.4234H17.1861L17.5388 11.0913H16.1569L15.8 12.4234Z" fill="#006A90"/>
</svg>
